<?xml version="1.0" encoding="utf-8" standalone="no"?>
<!DOCTYPE svg PUBLIC "-//W3C//DTD SVG 1.1//EN"
  "http://www.w3.org/Graphics/SVG/1.1/DTD/svg11.dtd">
<svg xmlns:xlink="http://www.w3.org/1999/xlink" width="728.399518pt" height="613.199492pt" viewBox="0 0 728.399518 613.199492" xmlns="http://www.w3.org/2000/svg" version="1.1">
 <metadata>
  <rdf:RDF xmlns:dc="http://purl.org/dc/elements/1.1/" xmlns:cc="http://creativecommons.org/ns#" xmlns:rdf="http://www.w3.org/1999/02/22-rdf-syntax-ns#">
   <cc:Work>
    <dc:type rdf:resource="http://purl.org/dc/dcmitype/StillImage"/>
    <dc:date>2026-07-29T19:15:15.940025</dc:date>
    <dc:format>image/svg+xml</dc:format>
    <dc:creator>
     <cc:Agent>
      <dc:title>Matplotlib v3.11.0, https://matplotlib.org/</dc:title>
     </cc:Agent>
    </dc:creator>
   </cc:Work>
  </rdf:RDF>
 </metadata>
 <defs>
  <style type="text/css">*{stroke-linejoin: round; stroke-linecap: butt}</style>
 </defs>
 <g id="figure_1">
  <g id="patch_1">
   <path d="M 0 613.199492 
L 728.399518 613.199492 
L 728.399518 0 
L 0 0 
z
" style="fill: #ffffff"/>
  </g>
  <g id="axes_1">
   <g id="patch_2">
    <path d="M 57.195859 145.676061 
L 720.210046 145.676061 
L 720.210046 23.229937 
L 57.195859 23.229937 
z
" style="fill: #ffffff"/>
   </g>
   <g id="matplotlib.axis_1">
    <g id="xtick_1">
     <g id="line2d_1">
      <path d="M 87.332868 145.676061 
L 87.332868 23.229937 
" clip-path="url(#p29296db2a5)" style="fill: none; stroke: #b0b0b0; stroke-opacity: 0.25; stroke-width: 0.4; stroke-linecap: square"/>
     </g>
     <g id="line2d_2">
      <defs>
       <path id="mc4a2188b08" d="M 0 0 
L 0 3.5 
" style="stroke: #000000; stroke-width: 0.8"/>
      </defs>
      <g>
       <use xlink:href="#mc4a2188b08" x="87.332868" y="145.676061" style="stroke: #000000; stroke-width: 0.8"/>
      </g>
     </g>
    </g>
    <g id="xtick_2">
     <g id="line2d_3">
      <path d="M 191.227622 145.676061 
L 191.227622 23.229937 
" clip-path="url(#p29296db2a5)" style="fill: none; stroke: #b0b0b0; stroke-opacity: 0.25; stroke-width: 0.4; stroke-linecap: square"/>
     </g>
     <g id="line2d_4">
      <g>
       <use xlink:href="#mc4a2188b08" x="191.227622" y="145.676061" style="stroke: #000000; stroke-width: 0.8"/>
      </g>
     </g>
    </g>
    <g id="xtick_3">
     <g id="line2d_5">
      <path d="M 295.122376 145.676061 
L 295.122376 23.229937 
" clip-path="url(#p29296db2a5)" style="fill: none; stroke: #b0b0b0; stroke-opacity: 0.25; stroke-width: 0.4; stroke-linecap: square"/>
     </g>
     <g id="line2d_6">
      <g>
       <use xlink:href="#mc4a2188b08" x="295.122376" y="145.676061" style="stroke: #000000; stroke-width: 0.8"/>
      </g>
     </g>
    </g>
    <g id="xtick_4">
     <g id="line2d_7">
      <path d="M 399.017131 145.676061 
L 399.017131 23.229937 
" clip-path="url(#p29296db2a5)" style="fill: none; stroke: #b0b0b0; stroke-opacity: 0.25; stroke-width: 0.4; stroke-linecap: square"/>
     </g>
     <g id="line2d_8">
      <g>
       <use xlink:href="#mc4a2188b08" x="399.017131" y="145.676061" style="stroke: #000000; stroke-width: 0.8"/>
      </g>
     </g>
    </g>
    <g id="xtick_5">
     <g id="line2d_9">
      <path d="M 502.911885 145.676061 
L 502.911885 23.229937 
" clip-path="url(#p29296db2a5)" style="fill: none; stroke: #b0b0b0; stroke-opacity: 0.25; stroke-width: 0.4; stroke-linecap: square"/>
     </g>
     <g id="line2d_10">
      <g>
       <use xlink:href="#mc4a2188b08" x="502.911885" y="145.676061" style="stroke: #000000; stroke-width: 0.8"/>
      </g>
     </g>
    </g>
    <g id="xtick_6">
     <g id="line2d_11">
      <path d="M 606.806639 145.676061 
L 606.806639 23.229937 
" clip-path="url(#p29296db2a5)" style="fill: none; stroke: #b0b0b0; stroke-opacity: 0.25; stroke-width: 0.4; stroke-linecap: square"/>
     </g>
     <g id="line2d_12">
      <g>
       <use xlink:href="#mc4a2188b08" x="606.806639" y="145.676061" style="stroke: #000000; stroke-width: 0.8"/>
      </g>
     </g>
    </g>
    <g id="xtick_7">
     <g id="line2d_13">
      <path d="M 710.701393 145.676061 
L 710.701393 23.229937 
" clip-path="url(#p29296db2a5)" style="fill: none; stroke: #b0b0b0; stroke-opacity: 0.25; stroke-width: 0.4; stroke-linecap: square"/>
     </g>
     <g id="line2d_14">
      <g>
       <use xlink:href="#mc4a2188b08" x="710.701393" y="145.676061" style="stroke: #000000; stroke-width: 0.8"/>
      </g>
     </g>
    </g>
   </g>
   <g id="matplotlib.axis_2">
    <g id="ytick_1">
     <g id="line2d_15">
      <path d="M 57.195859 140.110329 
L 720.210046 140.110329 
" clip-path="url(#p29296db2a5)" style="fill: none; stroke: #b0b0b0; stroke-opacity: 0.25; stroke-width: 0.4; stroke-linecap: square"/>
     </g>
     <g id="line2d_16">
      <defs>
       <path id="m5a8a1deeae" d="M 0 0 
L -3.5 0 
" style="stroke: #000000; stroke-width: 0.8"/>
      </defs>
      <g>
       <use xlink:href="#m5a8a1deeae" x="57.195859" y="140.110329" style="stroke: #000000; stroke-width: 0.8"/>
      </g>
     </g>
     <g id="text_1">
      <!-- 0 -->
      <g transform="translate(43.197109 144.289039) scale(0.11 -0.11)">
       <defs>
        <path id="DejaVuSans-13" d="M 2034 4250 
Q 1547 4250 1301 3770 
Q 1056 3291 1056 2328 
Q 1056 1369 1301 889 
Q 1547 409 2034 409 
Q 2525 409 2770 889 
Q 3016 1369 3016 2328 
Q 3016 3291 2770 3770 
Q 2525 4250 2034 4250 
z
M 2034 4750 
Q 2819 4750 3233 4129 
Q 3647 3509 3647 2328 
Q 3647 1150 3233 529 
Q 2819 -91 2034 -91 
Q 1250 -91 836 529 
Q 422 1150 422 2328 
Q 422 3509 836 4129 
Q 1250 4750 2034 4750 
z
" transform="scale(0.015625)"/>
       </defs>
       <use xlink:href="#DejaVuSans-13"/>
      </g>
     </g>
    </g>
    <g id="ytick_2">
     <g id="line2d_17">
      <path d="M 57.195859 95.414708 
L 720.210046 95.414708 
" clip-path="url(#p29296db2a5)" style="fill: none; stroke: #b0b0b0; stroke-opacity: 0.25; stroke-width: 0.4; stroke-linecap: square"/>
     </g>
     <g id="line2d_18">
      <g>
       <use xlink:href="#m5a8a1deeae" x="57.195859" y="95.414708" style="stroke: #000000; stroke-width: 0.8"/>
      </g>
     </g>
     <g id="text_2">
      <!-- 1000 -->
      <g transform="translate(22.200859 99.593419) scale(0.11 -0.11)">
       <defs>
        <path id="DejaVuSans-14" d="M 794 531 
L 1825 531 
L 1825 4091 
L 703 3866 
L 703 4441 
L 1819 4666 
L 2450 4666 
L 2450 531 
L 3481 531 
L 3481 0 
L 794 0 
L 794 531 
z
" transform="scale(0.015625)"/>
       </defs>
       <use xlink:href="#DejaVuSans-14"/>
       <use xlink:href="#DejaVuSans-13" transform="translate(63.625 0)"/>
       <use xlink:href="#DejaVuSans-13" transform="translate(127.25 0)"/>
       <use xlink:href="#DejaVuSans-13" transform="translate(190.875 0)"/>
      </g>
     </g>
    </g>
    <g id="ytick_3">
     <g id="line2d_19">
      <path d="M 57.195859 50.719088 
L 720.210046 50.719088 
" clip-path="url(#p29296db2a5)" style="fill: none; stroke: #b0b0b0; stroke-opacity: 0.25; stroke-width: 0.4; stroke-linecap: square"/>
     </g>
     <g id="line2d_20">
      <g>
       <use xlink:href="#m5a8a1deeae" x="57.195859" y="50.719088" style="stroke: #000000; stroke-width: 0.8"/>
      </g>
     </g>
     <g id="text_3">
      <!-- 2000 -->
      <g transform="translate(22.200859 54.897799) scale(0.11 -0.11)">
       <defs>
        <path id="DejaVuSans-15" d="M 1228 531 
L 3431 531 
L 3431 0 
L 469 0 
L 469 531 
Q 828 903 1448 1529 
Q 2069 2156 2228 2338 
Q 2531 2678 2651 2914 
Q 2772 3150 2772 3378 
Q 2772 3750 2511 3984 
Q 2250 4219 1831 4219 
Q 1534 4219 1204 4116 
Q 875 4013 500 3803 
L 500 4441 
Q 881 4594 1212 4672 
Q 1544 4750 1819 4750 
Q 2544 4750 2975 4387 
Q 3406 4025 3406 3419 
Q 3406 3131 3298 2873 
Q 3191 2616 2906 2266 
Q 2828 2175 2409 1742 
Q 1991 1309 1228 531 
z
" transform="scale(0.015625)"/>
       </defs>
       <use xlink:href="#DejaVuSans-15"/>
       <use xlink:href="#DejaVuSans-13" transform="translate(63.625 0)"/>
       <use xlink:href="#DejaVuSans-13" transform="translate(127.25 0)"/>
       <use xlink:href="#DejaVuSans-13" transform="translate(190.875 0)"/>
      </g>
     </g>
    </g>
    <g id="text_4">
     <!-- z [m] -->
     <g transform="translate(15.558281 98.736671) rotate(-90) scale(0.11 -0.11)">
      <defs>
       <path id="DejaVuSans-5d" d="M 353 3500 
L 3084 3500 
L 3084 2975 
L 922 459 
L 3084 459 
L 3084 0 
L 275 0 
L 275 525 
L 2438 3041 
L 353 3041 
L 353 3500 
z
" transform="scale(0.015625)"/>
       <path id="DejaVuSans-3" transform="scale(0.015625)"/>
       <path id="DejaVuSans-3e" d="M 550 4863 
L 1875 4863 
L 1875 4416 
L 1125 4416 
L 1125 -397 
L 1875 -397 
L 1875 -844 
L 550 -844 
L 550 4863 
z
" transform="scale(0.015625)"/>
       <path id="DejaVuSans-50" d="M 3328 2828 
Q 3544 3216 3844 3400 
Q 4144 3584 4550 3584 
Q 5097 3584 5394 3201 
Q 5691 2819 5691 2113 
L 5691 0 
L 5113 0 
L 5113 2094 
Q 5113 2597 4934 2840 
Q 4756 3084 4391 3084 
Q 3944 3084 3684 2787 
Q 3425 2491 3425 1978 
L 3425 0 
L 2847 0 
L 2847 2094 
Q 2847 2600 2669 2842 
Q 2491 3084 2119 3084 
Q 1678 3084 1418 2786 
Q 1159 2488 1159 1978 
L 1159 0 
L 581 0 
L 581 3500 
L 1159 3500 
L 1159 2956 
Q 1356 3278 1631 3431 
Q 1906 3584 2284 3584 
Q 2666 3584 2933 3390 
Q 3200 3197 3328 2828 
z
" transform="scale(0.015625)"/>
       <path id="DejaVuSans-40" d="M 1947 4863 
L 1947 -844 
L 622 -844 
L 622 -397 
L 1369 -397 
L 1369 4416 
L 622 4416 
L 622 4863 
L 1947 4863 
z
" transform="scale(0.015625)"/>
      </defs>
      <use xlink:href="#DejaVuSans-5d"/>
      <use xlink:href="#DejaVuSans-3" transform="translate(52.484375 0)"/>
      <use xlink:href="#DejaVuSans-3e" transform="translate(84.265625 0)"/>
      <use xlink:href="#DejaVuSans-50" transform="translate(123.28125 0)"/>
      <use xlink:href="#DejaVuSans-40" transform="translate(220.6875 0)"/>
     </g>
    </g>
   </g>
   <g id="line2d_21">
    <path d="M 87.332868 140.110329 
L 113.54385 135.506488 
L 139.754833 130.902647 
L 165.965815 126.298806 
L 192.176798 121.694966 
L 218.387781 117.091125 
L 244.598763 112.487284 
L 270.809746 107.883443 
L 297.020728 103.279603 
L 302.942569 102.128643 
L 308.86606 100.977682 
L 314.789551 99.826722 
L 320.713042 98.675762 
L 326.636533 97.524802 
L 332.560024 96.373842 
L 338.483515 95.222881 
L 344.407006 94.071921 
L 350.330497 92.920961 
L 356.253988 91.770001 
L 362.177479 90.619041 
L 368.10097 89.468081 
L 374.024461 88.31712 
L 379.947952 87.16616 
L 385.871443 86.0152 
L 391.794934 84.86424 
L 397.718425 83.71328 
L 403.641916 82.562319 
L 409.565407 81.411359 
L 415.488898 80.260399 
L 421.412389 79.109439 
L 427.33588 77.958479 
L 433.259371 76.807519 
L 439.182862 75.656558 
L 445.106353 74.505598 
L 451.029844 73.354638 
L 456.953335 72.203678 
L 462.876826 71.052718 
L 468.800317 69.901757 
L 474.723808 68.750797 
L 480.647299 67.599837 
L 486.57079 66.448877 
L 492.49428 65.297917 
L 498.417771 64.146957 
L 504.341262 62.995996 
L 510.264753 61.845036 
L 516.188244 60.694076 
L 522.111735 59.543116 
L 528.035226 58.392156 
L 533.958717 57.241195 
L 539.882208 56.090235 
L 545.805699 54.939275 
L 551.72919 53.788315 
L 557.652681 52.637355 
L 563.576172 51.486395 
L 569.499663 50.335434 
L 575.423154 49.184474 
L 581.346645 48.033514 
L 587.270136 46.882554 
L 593.193627 45.731594 
L 599.117118 44.580633 
L 605.040609 43.429673 
L 610.9641 42.278713 
L 616.887591 41.127753 
L 622.811082 39.976793 
L 626.763791 39.209486 
L 630.769608 38.442179 
L 632.795467 38.058526 
L 636.905444 37.291219 
L 641.16689 36.523912 
L 645.520328 35.756605 
L 647.803661 35.372952 
L 650.086993 34.989299 
L 652.370326 34.605645 
L 654.777561 34.221992 
L 657.184795 33.838338 
L 659.59203 33.454685 
L 662.137932 33.071032 
L 664.683833 32.687378 
L 667.229735 32.303725 
L 669.775637 31.920071 
L 672.321538 31.536418 
L 674.86744 31.152765 
L 677.413342 30.769111 
L 679.959243 30.385458 
L 682.505145 30.001804 
L 684.91238 29.618151 
L 687.319614 29.234498 
L 689.726849 28.850844 
L 690.073037 28.79567 
" clip-path="url(#p29296db2a5)" style="fill: none; stroke: #9467bd; stroke-width: 2.2; stroke-linecap: square"/>
   </g>
   <g id="line2d_22">
    <path d="M 297.020728 145.676061 
L 297.020728 23.229937 
" clip-path="url(#p29296db2a5)" style="fill: none; stroke-dasharray: 4.44,1.92; stroke-dashoffset: 0; stroke: #696969; stroke-width: 1.2"/>
   </g>
   <g id="patch_3">
    <path d="M 57.195859 145.676061 
L 57.195859 23.229937 
" style="fill: none; stroke: #000000; stroke-width: 0.8; stroke-linejoin: miter; stroke-linecap: square"/>
   </g>
   <g id="patch_4">
    <path d="M 720.210046 145.676061 
L 720.210046 23.229937 
" style="fill: none; stroke: #000000; stroke-width: 0.8; stroke-linejoin: miter; stroke-linecap: square"/>
   </g>
   <g id="patch_5">
    <path d="M 57.195859 145.676061 
L 720.210046 145.676061 
" style="fill: none; stroke: #000000; stroke-width: 0.8; stroke-linejoin: miter; stroke-linecap: square"/>
   </g>
   <g id="patch_6">
    <path d="M 57.195859 23.229937 
L 720.210046 23.229937 
" style="fill: none; stroke: #000000; stroke-width: 0.8; stroke-linejoin: miter; stroke-linecap: square"/>
   </g>
   <g id="text_5">
    <!-- Attacker Optimal Strategy: State History -->
    <g transform="translate(255.617046 17.229937) scale(0.132 -0.132)">
     <defs>
      <path id="DejaVuSans-24" d="M 2188 4044 
L 1331 1722 
L 3047 1722 
L 2188 4044 
z
M 1831 4666 
L 2547 4666 
L 4325 0 
L 3669 0 
L 3244 1197 
L 1141 1197 
L 716 0 
L 50 0 
L 1831 4666 
z
" transform="scale(0.015625)"/>
      <path id="DejaVuSans-57" d="M 1172 4494 
L 1172 3500 
L 2356 3500 
L 2356 3053 
L 1172 3053 
L 1172 1153 
Q 1172 725 1289 603 
Q 1406 481 1766 481 
L 2356 481 
L 2356 0 
L 1766 0 
Q 1100 0 847 248 
Q 594 497 594 1153 
L 594 3053 
L 172 3053 
L 172 3500 
L 594 3500 
L 594 4494 
L 1172 4494 
z
" transform="scale(0.015625)"/>
      <path id="DejaVuSans-44" d="M 2194 1759 
Q 1497 1759 1228 1600 
Q 959 1441 959 1056 
Q 959 750 1161 570 
Q 1363 391 1709 391 
Q 2188 391 2477 730 
Q 2766 1069 2766 1631 
L 2766 1759 
L 2194 1759 
z
M 3341 1997 
L 3341 0 
L 2766 0 
L 2766 531 
Q 2569 213 2275 61 
Q 1981 -91 1556 -91 
Q 1019 -91 701 211 
Q 384 513 384 1019 
Q 384 1609 779 1909 
Q 1175 2209 1959 2209 
L 2766 2209 
L 2766 2266 
Q 2766 2663 2505 2880 
Q 2244 3097 1772 3097 
Q 1472 3097 1187 3025 
Q 903 2953 641 2809 
L 641 3341 
Q 956 3463 1253 3523 
Q 1550 3584 1831 3584 
Q 2591 3584 2966 3190 
Q 3341 2797 3341 1997 
z
" transform="scale(0.015625)"/>
      <path id="DejaVuSans-46" d="M 3122 3366 
L 3122 2828 
Q 2878 2963 2633 3030 
Q 2388 3097 2138 3097 
Q 1578 3097 1268 2742 
Q 959 2388 959 1747 
Q 959 1106 1268 751 
Q 1578 397 2138 397 
Q 2388 397 2633 464 
Q 2878 531 3122 666 
L 3122 134 
Q 2881 22 2623 -34 
Q 2366 -91 2075 -91 
Q 1284 -91 818 406 
Q 353 903 353 1747 
Q 353 2603 823 3093 
Q 1294 3584 2113 3584 
Q 2378 3584 2631 3529 
Q 2884 3475 3122 3366 
z
" transform="scale(0.015625)"/>
      <path id="DejaVuSans-4e" d="M 581 4863 
L 1159 4863 
L 1159 1991 
L 2875 3500 
L 3609 3500 
L 1753 1863 
L 3688 0 
L 2938 0 
L 1159 1709 
L 1159 0 
L 581 0 
L 581 4863 
z
" transform="scale(0.015625)"/>
      <path id="DejaVuSans-48" d="M 3597 1894 
L 3597 1613 
L 953 1613 
Q 991 1019 1311 708 
Q 1631 397 2203 397 
Q 2534 397 2845 478 
Q 3156 559 3463 722 
L 3463 178 
Q 3153 47 2828 -22 
Q 2503 -91 2169 -91 
Q 1331 -91 842 396 
Q 353 884 353 1716 
Q 353 2575 817 3079 
Q 1281 3584 2069 3584 
Q 2775 3584 3186 3129 
Q 3597 2675 3597 1894 
z
M 3022 2063 
Q 3016 2534 2758 2815 
Q 2500 3097 2075 3097 
Q 1594 3097 1305 2825 
Q 1016 2553 972 2059 
L 3022 2063 
z
" transform="scale(0.015625)"/>
      <path id="DejaVuSans-55" d="M 2631 2963 
Q 2534 3019 2420 3045 
Q 2306 3072 2169 3072 
Q 1681 3072 1420 2755 
Q 1159 2438 1159 1844 
L 1159 0 
L 581 0 
L 581 3500 
L 1159 3500 
L 1159 2956 
Q 1341 3275 1631 3429 
Q 1922 3584 2338 3584 
Q 2397 3584 2469 3576 
Q 2541 3569 2628 3553 
L 2631 2963 
z
" transform="scale(0.015625)"/>
      <path id="DejaVuSans-32" d="M 2522 4238 
Q 1834 4238 1429 3725 
Q 1025 3213 1025 2328 
Q 1025 1447 1429 934 
Q 1834 422 2522 422 
Q 3209 422 3611 934 
Q 4013 1447 4013 2328 
Q 4013 3213 3611 3725 
Q 3209 4238 2522 4238 
z
M 2522 4750 
Q 3503 4750 4090 4092 
Q 4678 3434 4678 2328 
Q 4678 1225 4090 567 
Q 3503 -91 2522 -91 
Q 1538 -91 948 565 
Q 359 1222 359 2328 
Q 359 3434 948 4092 
Q 1538 4750 2522 4750 
z
" transform="scale(0.015625)"/>
      <path id="DejaVuSans-53" d="M 1159 525 
L 1159 -1331 
L 581 -1331 
L 581 3500 
L 1159 3500 
L 1159 2969 
Q 1341 3281 1617 3432 
Q 1894 3584 2278 3584 
Q 2916 3584 3314 3078 
Q 3713 2572 3713 1747 
Q 3713 922 3314 415 
Q 2916 -91 2278 -91 
Q 1894 -91 1617 61 
Q 1341 213 1159 525 
z
M 3116 1747 
Q 3116 2381 2855 2742 
Q 2594 3103 2138 3103 
Q 1681 3103 1420 2742 
Q 1159 2381 1159 1747 
Q 1159 1113 1420 752 
Q 1681 391 2138 391 
Q 2594 391 2855 752 
Q 3116 1113 3116 1747 
z
" transform="scale(0.015625)"/>
      <path id="DejaVuSans-4c" d="M 603 3500 
L 1178 3500 
L 1178 0 
L 603 0 
L 603 3500 
z
M 603 4863 
L 1178 4863 
L 1178 4134 
L 603 4134 
L 603 4863 
z
" transform="scale(0.015625)"/>
      <path id="DejaVuSans-4f" d="M 603 4863 
L 1178 4863 
L 1178 0 
L 603 0 
L 603 4863 
z
" transform="scale(0.015625)"/>
      <path id="DejaVuSans-36" d="M 3425 4513 
L 3425 3897 
Q 3066 4069 2747 4153 
Q 2428 4238 2131 4238 
Q 1616 4238 1336 4038 
Q 1056 3838 1056 3469 
Q 1056 3159 1242 3001 
Q 1428 2844 1947 2747 
L 2328 2669 
Q 3034 2534 3370 2195 
Q 3706 1856 3706 1288 
Q 3706 609 3251 259 
Q 2797 -91 1919 -91 
Q 1588 -91 1214 -16 
Q 841 59 441 206 
L 441 856 
Q 825 641 1194 531 
Q 1563 422 1919 422 
Q 2459 422 2753 634 
Q 3047 847 3047 1241 
Q 3047 1584 2836 1778 
Q 2625 1972 2144 2069 
L 1759 2144 
Q 1053 2284 737 2584 
Q 422 2884 422 3419 
Q 422 4038 858 4394 
Q 1294 4750 2059 4750 
Q 2388 4750 2728 4690 
Q 3069 4631 3425 4513 
z
" transform="scale(0.015625)"/>
      <path id="DejaVuSans-4a" d="M 2906 1791 
Q 2906 2416 2648 2759 
Q 2391 3103 1925 3103 
Q 1463 3103 1205 2759 
Q 947 2416 947 1791 
Q 947 1169 1205 825 
Q 1463 481 1925 481 
Q 2391 481 2648 825 
Q 2906 1169 2906 1791 
z
M 3481 434 
Q 3481 -459 3084 -895 
Q 2688 -1331 1869 -1331 
Q 1566 -1331 1297 -1286 
Q 1028 -1241 775 -1147 
L 775 -588 
Q 1028 -725 1275 -790 
Q 1522 -856 1778 -856 
Q 2344 -856 2625 -561 
Q 2906 -266 2906 331 
L 2906 616 
Q 2728 306 2450 153 
Q 2172 0 1784 0 
Q 1141 0 747 490 
Q 353 981 353 1791 
Q 353 2603 747 3093 
Q 1141 3584 1784 3584 
Q 2172 3584 2450 3431 
Q 2728 3278 2906 2969 
L 2906 3500 
L 3481 3500 
L 3481 434 
z
" transform="scale(0.015625)"/>
      <path id="DejaVuSans-5c" d="M 2059 -325 
Q 1816 -950 1584 -1140 
Q 1353 -1331 966 -1331 
L 506 -1331 
L 506 -850 
L 844 -850 
Q 1081 -850 1212 -737 
Q 1344 -625 1503 -206 
L 1606 56 
L 191 3500 
L 800 3500 
L 1894 763 
L 2988 3500 
L 3597 3500 
L 2059 -325 
z
" transform="scale(0.015625)"/>
      <path id="DejaVuSans-1d" d="M 750 794 
L 1409 794 
L 1409 0 
L 750 0 
L 750 794 
z
M 750 3309 
L 1409 3309 
L 1409 2516 
L 750 2516 
L 750 3309 
z
" transform="scale(0.015625)"/>
      <path id="DejaVuSans-2b" d="M 628 4666 
L 1259 4666 
L 1259 2753 
L 3553 2753 
L 3553 4666 
L 4184 4666 
L 4184 0 
L 3553 0 
L 3553 2222 
L 1259 2222 
L 1259 0 
L 628 0 
L 628 4666 
z
" transform="scale(0.015625)"/>
      <path id="DejaVuSans-56" d="M 2834 3397 
L 2834 2853 
Q 2591 2978 2328 3040 
Q 2066 3103 1784 3103 
Q 1356 3103 1142 2972 
Q 928 2841 928 2578 
Q 928 2378 1081 2264 
Q 1234 2150 1697 2047 
L 1894 2003 
Q 2506 1872 2764 1633 
Q 3022 1394 3022 966 
Q 3022 478 2636 193 
Q 2250 -91 1575 -91 
Q 1294 -91 989 -36 
Q 684 19 347 128 
L 347 722 
Q 666 556 975 473 
Q 1284 391 1588 391 
Q 1994 391 2212 530 
Q 2431 669 2431 922 
Q 2431 1156 2273 1281 
Q 2116 1406 1581 1522 
L 1381 1569 
Q 847 1681 609 1914 
Q 372 2147 372 2553 
Q 372 3047 722 3315 
Q 1072 3584 1716 3584 
Q 2034 3584 2315 3537 
Q 2597 3491 2834 3397 
z
" transform="scale(0.015625)"/>
      <path id="DejaVuSans-52" d="M 1959 3097 
Q 1497 3097 1228 2736 
Q 959 2375 959 1747 
Q 959 1119 1226 758 
Q 1494 397 1959 397 
Q 2419 397 2687 759 
Q 2956 1122 2956 1747 
Q 2956 2369 2687 2733 
Q 2419 3097 1959 3097 
z
M 1959 3584 
Q 2709 3584 3137 3096 
Q 3566 2609 3566 1747 
Q 3566 888 3137 398 
Q 2709 -91 1959 -91 
Q 1206 -91 779 398 
Q 353 888 353 1747 
Q 353 2609 779 3096 
Q 1206 3584 1959 3584 
z
" transform="scale(0.015625)"/>
     </defs>
     <use xlink:href="#DejaVuSans-24"/>
     <use xlink:href="#DejaVuSans-57" transform="translate(66.65625 0)"/>
     <use xlink:href="#DejaVuSans-57" transform="translate(105.859375 0)"/>
     <use xlink:href="#DejaVuSans-44" transform="translate(145.0625 0)"/>
     <use xlink:href="#DejaVuSans-46" transform="translate(206.34375 0)"/>
     <use xlink:href="#DejaVuSans-4e" transform="translate(261.328125 0)"/>
     <use xlink:href="#DejaVuSans-48" transform="translate(315.671875 0)"/>
     <use xlink:href="#DejaVuSans-55" transform="translate(377.203125 0)"/>
     <use xlink:href="#DejaVuSans-3" transform="translate(418.3125 0)"/>
     <use xlink:href="#DejaVuSans-32" transform="translate(450.09375 0)"/>
     <use xlink:href="#DejaVuSans-53" transform="translate(528.8125 0)"/>
     <use xlink:href="#DejaVuSans-57" transform="translate(592.296875 0)"/>
     <use xlink:href="#DejaVuSans-4c" transform="translate(631.5 0)"/>
     <use xlink:href="#DejaVuSans-50" transform="translate(659.28125 0)"/>
     <use xlink:href="#DejaVuSans-44" transform="translate(756.6875 0)"/>
     <use xlink:href="#DejaVuSans-4f" transform="translate(817.96875 0)"/>
     <use xlink:href="#DejaVuSans-3" transform="translate(845.75 0)"/>
     <use xlink:href="#DejaVuSans-36" transform="translate(877.53125 0)"/>
     <use xlink:href="#DejaVuSans-57" transform="translate(941.015625 0)"/>
     <use xlink:href="#DejaVuSans-55" transform="translate(980.21875 0)"/>
     <use xlink:href="#DejaVuSans-44" transform="translate(1021.328125 0)"/>
     <use xlink:href="#DejaVuSans-57" transform="translate(1082.609375 0)"/>
     <use xlink:href="#DejaVuSans-48" transform="translate(1121.8125 0)"/>
     <use xlink:href="#DejaVuSans-4a" transform="translate(1183.34375 0)"/>
     <use xlink:href="#DejaVuSans-5c" transform="translate(1246.828125 0)"/>
     <use xlink:href="#DejaVuSans-1d" transform="translate(1298.734375 0)"/>
     <use xlink:href="#DejaVuSans-3" transform="translate(1332.421875 0)"/>
     <use xlink:href="#DejaVuSans-36" transform="translate(1364.203125 0)"/>
     <use xlink:href="#DejaVuSans-57" transform="translate(1427.6875 0)"/>
     <use xlink:href="#DejaVuSans-44" transform="translate(1466.890625 0)"/>
     <use xlink:href="#DejaVuSans-57" transform="translate(1528.171875 0)"/>
     <use xlink:href="#DejaVuSans-48" transform="translate(1567.375 0)"/>
     <use xlink:href="#DejaVuSans-3" transform="translate(1628.90625 0)"/>
     <use xlink:href="#DejaVuSans-2b" transform="translate(1660.6875 0)"/>
     <use xlink:href="#DejaVuSans-4c" transform="translate(1735.890625 0)"/>
     <use xlink:href="#DejaVuSans-56" transform="translate(1763.671875 0)"/>
     <use xlink:href="#DejaVuSans-57" transform="translate(1815.765625 0)"/>
     <use xlink:href="#DejaVuSans-52" transform="translate(1854.96875 0)"/>
     <use xlink:href="#DejaVuSans-55" transform="translate(1916.15625 0)"/>
     <use xlink:href="#DejaVuSans-5c" transform="translate(1957.265625 0)"/>
    </g>
   </g>
  </g>
  <g id="axes_2">
   <g id="patch_7">
    <path d="M 57.195859 277.622665 
L 720.210046 277.622665 
L 720.210046 155.176541 
L 57.195859 155.176541 
z
" style="fill: #ffffff"/>
   </g>
   <g id="matplotlib.axis_3">
    <g id="xtick_8">
     <g id="line2d_23">
      <path d="M 87.332868 277.622665 
L 87.332868 155.176541 
" clip-path="url(#pfef771bf83)" style="fill: none; stroke: #b0b0b0; stroke-opacity: 0.25; stroke-width: 0.4; stroke-linecap: square"/>
     </g>
     <g id="line2d_24">
      <g>
       <use xlink:href="#mc4a2188b08" x="87.332868" y="277.622665" style="stroke: #000000; stroke-width: 0.8"/>
      </g>
     </g>
    </g>
    <g id="xtick_9">
     <g id="line2d_25">
      <path d="M 191.227622 277.622665 
L 191.227622 155.176541 
" clip-path="url(#pfef771bf83)" style="fill: none; stroke: #b0b0b0; stroke-opacity: 0.25; stroke-width: 0.4; stroke-linecap: square"/>
     </g>
     <g id="line2d_26">
      <g>
       <use xlink:href="#mc4a2188b08" x="191.227622" y="277.622665" style="stroke: #000000; stroke-width: 0.8"/>
      </g>
     </g>
    </g>
    <g id="xtick_10">
     <g id="line2d_27">
      <path d="M 295.122376 277.622665 
L 295.122376 155.176541 
" clip-path="url(#pfef771bf83)" style="fill: none; stroke: #b0b0b0; stroke-opacity: 0.25; stroke-width: 0.4; stroke-linecap: square"/>
     </g>
     <g id="line2d_28">
      <g>
       <use xlink:href="#mc4a2188b08" x="295.122376" y="277.622665" style="stroke: #000000; stroke-width: 0.8"/>
      </g>
     </g>
    </g>
    <g id="xtick_11">
     <g id="line2d_29">
      <path d="M 399.017131 277.622665 
L 399.017131 155.176541 
" clip-path="url(#pfef771bf83)" style="fill: none; stroke: #b0b0b0; stroke-opacity: 0.25; stroke-width: 0.4; stroke-linecap: square"/>
     </g>
     <g id="line2d_30">
      <g>
       <use xlink:href="#mc4a2188b08" x="399.017131" y="277.622665" style="stroke: #000000; stroke-width: 0.8"/>
      </g>
     </g>
    </g>
    <g id="xtick_12">
     <g id="line2d_31">
      <path d="M 502.911885 277.622665 
L 502.911885 155.176541 
" clip-path="url(#pfef771bf83)" style="fill: none; stroke: #b0b0b0; stroke-opacity: 0.25; stroke-width: 0.4; stroke-linecap: square"/>
     </g>
     <g id="line2d_32">
      <g>
       <use xlink:href="#mc4a2188b08" x="502.911885" y="277.622665" style="stroke: #000000; stroke-width: 0.8"/>
      </g>
     </g>
    </g>
    <g id="xtick_13">
     <g id="line2d_33">
      <path d="M 606.806639 277.622665 
L 606.806639 155.176541 
" clip-path="url(#pfef771bf83)" style="fill: none; stroke: #b0b0b0; stroke-opacity: 0.25; stroke-width: 0.4; stroke-linecap: square"/>
     </g>
     <g id="line2d_34">
      <g>
       <use xlink:href="#mc4a2188b08" x="606.806639" y="277.622665" style="stroke: #000000; stroke-width: 0.8"/>
      </g>
     </g>
    </g>
    <g id="xtick_14">
     <g id="line2d_35">
      <path d="M 710.701393 277.622665 
L 710.701393 155.176541 
" clip-path="url(#pfef771bf83)" style="fill: none; stroke: #b0b0b0; stroke-opacity: 0.25; stroke-width: 0.4; stroke-linecap: square"/>
     </g>
     <g id="line2d_36">
      <g>
       <use xlink:href="#mc4a2188b08" x="710.701393" y="277.622665" style="stroke: #000000; stroke-width: 0.8"/>
      </g>
     </g>
    </g>
   </g>
   <g id="matplotlib.axis_4">
    <g id="ytick_4">
     <g id="line2d_37">
      <path d="M 57.195859 272.056933 
L 720.210046 272.056933 
" clip-path="url(#pfef771bf83)" style="fill: none; stroke: #b0b0b0; stroke-opacity: 0.25; stroke-width: 0.4; stroke-linecap: square"/>
     </g>
     <g id="line2d_38">
      <g>
       <use xlink:href="#m5a8a1deeae" x="57.195859" y="272.056933" style="stroke: #000000; stroke-width: 0.8"/>
      </g>
     </g>
     <g id="text_6">
      <!-- 0 -->
      <g transform="translate(43.197109 276.235643) scale(0.11 -0.11)">
       <use xlink:href="#DejaVuSans-13"/>
      </g>
     </g>
    </g>
    <g id="ytick_5">
     <g id="line2d_39">
      <path d="M 57.195859 244.059404 
L 720.210046 244.059404 
" clip-path="url(#pfef771bf83)" style="fill: none; stroke: #b0b0b0; stroke-opacity: 0.25; stroke-width: 0.4; stroke-linecap: square"/>
     </g>
     <g id="line2d_40">
      <g>
       <use xlink:href="#m5a8a1deeae" x="57.195859" y="244.059404" style="stroke: #000000; stroke-width: 0.8"/>
      </g>
     </g>
     <g id="text_7">
      <!-- 50 -->
      <g transform="translate(36.198359 248.238114) scale(0.11 -0.11)">
       <defs>
        <path id="DejaVuSans-18" d="M 691 4666 
L 3169 4666 
L 3169 4134 
L 1269 4134 
L 1269 2991 
Q 1406 3038 1543 3061 
Q 1681 3084 1819 3084 
Q 2600 3084 3056 2656 
Q 3513 2228 3513 1497 
Q 3513 744 3044 326 
Q 2575 -91 1722 -91 
Q 1428 -91 1123 -41 
Q 819 9 494 109 
L 494 744 
Q 775 591 1075 516 
Q 1375 441 1709 441 
Q 2250 441 2565 725 
Q 2881 1009 2881 1497 
Q 2881 1984 2565 2268 
Q 2250 2553 1709 2553 
Q 1456 2553 1204 2497 
Q 953 2441 691 2322 
L 691 4666 
z
" transform="scale(0.015625)"/>
       </defs>
       <use xlink:href="#DejaVuSans-18"/>
       <use xlink:href="#DejaVuSans-13" transform="translate(63.625 0)"/>
      </g>
     </g>
    </g>
    <g id="ytick_6">
     <g id="line2d_41">
      <path d="M 57.195859 216.061875 
L 720.210046 216.061875 
" clip-path="url(#pfef771bf83)" style="fill: none; stroke: #b0b0b0; stroke-opacity: 0.25; stroke-width: 0.4; stroke-linecap: square"/>
     </g>
     <g id="line2d_42">
      <g>
       <use xlink:href="#m5a8a1deeae" x="57.195859" y="216.061875" style="stroke: #000000; stroke-width: 0.8"/>
      </g>
     </g>
     <g id="text_8">
      <!-- 100 -->
      <g transform="translate(29.199609 220.240585) scale(0.11 -0.11)">
       <use xlink:href="#DejaVuSans-14"/>
       <use xlink:href="#DejaVuSans-13" transform="translate(63.625 0)"/>
       <use xlink:href="#DejaVuSans-13" transform="translate(127.25 0)"/>
      </g>
     </g>
    </g>
    <g id="ytick_7">
     <g id="line2d_43">
      <path d="M 57.195859 188.064346 
L 720.210046 188.064346 
" clip-path="url(#pfef771bf83)" style="fill: none; stroke: #b0b0b0; stroke-opacity: 0.25; stroke-width: 0.4; stroke-linecap: square"/>
     </g>
     <g id="line2d_44">
      <g>
       <use xlink:href="#m5a8a1deeae" x="57.195859" y="188.064346" style="stroke: #000000; stroke-width: 0.8"/>
      </g>
     </g>
     <g id="text_9">
      <!-- 150 -->
      <g transform="translate(29.199609 192.243056) scale(0.11 -0.11)">
       <use xlink:href="#DejaVuSans-14"/>
       <use xlink:href="#DejaVuSans-18" transform="translate(63.625 0)"/>
       <use xlink:href="#DejaVuSans-13" transform="translate(127.25 0)"/>
      </g>
     </g>
    </g>
    <g id="ytick_8">
     <g id="line2d_45">
      <path d="M 57.195859 160.066817 
L 720.210046 160.066817 
" clip-path="url(#pfef771bf83)" style="fill: none; stroke: #b0b0b0; stroke-opacity: 0.25; stroke-width: 0.4; stroke-linecap: square"/>
     </g>
     <g id="line2d_46">
      <g>
       <use xlink:href="#m5a8a1deeae" x="57.195859" y="160.066817" style="stroke: #000000; stroke-width: 0.8"/>
      </g>
     </g>
     <g id="text_10">
      <!-- 200 -->
      <g transform="translate(29.199609 164.245527) scale(0.11 -0.11)">
       <use xlink:href="#DejaVuSans-15"/>
       <use xlink:href="#DejaVuSans-13" transform="translate(63.625 0)"/>
       <use xlink:href="#DejaVuSans-13" transform="translate(127.25 0)"/>
      </g>
     </g>
    </g>
    <g id="text_11">
     <!-- h [m] -->
     <g transform="translate(22.557031 231.28226) rotate(-90) scale(0.11 -0.11)">
      <defs>
       <path id="DejaVuSans-4b" d="M 3513 2113 
L 3513 0 
L 2938 0 
L 2938 2094 
Q 2938 2591 2744 2837 
Q 2550 3084 2163 3084 
Q 1697 3084 1428 2787 
Q 1159 2491 1159 1978 
L 1159 0 
L 581 0 
L 581 4863 
L 1159 4863 
L 1159 2956 
Q 1366 3272 1645 3428 
Q 1925 3584 2291 3584 
Q 2894 3584 3203 3211 
Q 3513 2838 3513 2113 
z
" transform="scale(0.015625)"/>
      </defs>
      <use xlink:href="#DejaVuSans-4b"/>
      <use xlink:href="#DejaVuSans-3" transform="translate(63.375 0)"/>
      <use xlink:href="#DejaVuSans-3e" transform="translate(95.15625 0)"/>
      <use xlink:href="#DejaVuSans-50" transform="translate(134.171875 0)"/>
      <use xlink:href="#DejaVuSans-40" transform="translate(231.578125 0)"/>
     </g>
    </g>
   </g>
   <g id="line2d_47">
    <path d="M 87.332868 272.056933 
L 113.54385 258.1426 
L 139.754833 244.228268 
L 165.965815 230.313936 
L 192.176798 216.399603 
L 218.387781 202.485271 
L 244.598763 188.570939 
L 270.809746 174.656607 
L 297.020728 160.742274 
L 302.942569 161.186718 
L 308.86606 161.746668 
L 314.789551 162.306619 
L 320.713042 162.866569 
L 326.636533 163.42652 
L 332.560024 163.986471 
L 338.483515 164.546421 
L 344.407006 165.106372 
L 350.330497 165.666322 
L 356.253988 166.226273 
L 362.177479 166.786223 
L 368.10097 167.346174 
L 374.024461 167.906125 
L 379.947952 168.466075 
L 385.871443 169.026026 
L 391.794934 169.585976 
L 397.718425 170.145927 
L 403.641916 170.705878 
L 409.565407 171.265828 
L 415.488898 171.825779 
L 421.412389 172.385729 
L 427.33588 172.94568 
L 433.259371 173.50563 
L 439.182862 174.065581 
L 445.106353 174.625532 
L 451.029844 175.185482 
L 456.953335 175.745433 
L 462.876826 176.305383 
L 468.800317 176.865334 
L 474.723808 177.425284 
L 480.647299 177.985235 
L 486.57079 178.545186 
L 492.49428 179.105136 
L 498.417771 179.665087 
L 504.341262 180.225037 
L 510.264753 180.784988 
L 516.188244 181.344939 
L 522.111735 181.904889 
L 528.035226 182.46484 
L 533.958717 183.02479 
L 539.882208 183.584741 
L 545.805699 184.144691 
L 551.72919 184.704642 
L 557.652681 185.264593 
L 563.576172 185.824543 
L 569.499663 186.384494 
L 575.423154 186.944444 
L 581.346645 187.504395 
L 587.270136 188.064346 
L 593.193627 188.624296 
L 599.117118 189.184247 
L 605.040609 189.744197 
L 610.9641 190.304148 
L 616.887591 190.864098 
L 622.811082 191.424049 
L 626.763791 191.984 
L 630.769608 193.663851 
L 632.795467 194.783752 
L 636.905444 197.583505 
L 641.16689 201.503159 
L 645.520328 205.982764 
L 647.803661 208.782517 
L 650.086993 211.58227 
L 652.370326 214.382023 
L 654.777561 217.741726 
L 657.184795 221.10143 
L 659.59203 224.461133 
L 662.137932 228.380787 
L 664.683833 232.300441 
L 667.229735 236.220095 
L 669.775637 240.139749 
L 672.321538 244.059404 
L 674.86744 247.979058 
L 677.413342 251.898712 
L 679.959243 255.818366 
L 682.505145 259.73802 
L 684.91238 263.097723 
L 687.319614 266.457427 
L 689.726849 269.81713 
L 690.073037 270.300295 
" clip-path="url(#pfef771bf83)" style="fill: none; stroke: #9467bd; stroke-width: 2.2; stroke-linecap: square"/>
   </g>
   <g id="line2d_48">
    <path d="M 297.020728 277.622665 
L 297.020728 155.176541 
" clip-path="url(#pfef771bf83)" style="fill: none; stroke-dasharray: 4.44,1.92; stroke-dashoffset: 0; stroke: #696969; stroke-width: 1.2"/>
   </g>
   <g id="patch_8">
    <path d="M 57.195859 277.622665 
L 57.195859 155.176541 
" style="fill: none; stroke: #000000; stroke-width: 0.8; stroke-linejoin: miter; stroke-linecap: square"/>
   </g>
   <g id="patch_9">
    <path d="M 720.210046 277.622665 
L 720.210046 155.176541 
" style="fill: none; stroke: #000000; stroke-width: 0.8; stroke-linejoin: miter; stroke-linecap: square"/>
   </g>
   <g id="patch_10">
    <path d="M 57.195859 277.622665 
L 720.210046 277.622665 
" style="fill: none; stroke: #000000; stroke-width: 0.8; stroke-linejoin: miter; stroke-linecap: square"/>
   </g>
   <g id="patch_11">
    <path d="M 57.195859 155.176541 
L 720.210046 155.176541 
" style="fill: none; stroke: #000000; stroke-width: 0.8; stroke-linejoin: miter; stroke-linecap: square"/>
   </g>
  </g>
  <g id="axes_3">
   <g id="patch_12">
    <path d="M 57.195859 409.569269 
L 720.210046 409.569269 
L 720.210046 287.123145 
L 57.195859 287.123145 
z
" style="fill: #ffffff"/>
   </g>
   <g id="matplotlib.axis_5">
    <g id="xtick_15">
     <g id="line2d_49">
      <path d="M 87.332868 409.569269 
L 87.332868 287.123145 
" clip-path="url(#p9035d91bbd)" style="fill: none; stroke: #b0b0b0; stroke-opacity: 0.25; stroke-width: 0.4; stroke-linecap: square"/>
     </g>
     <g id="line2d_50">
      <g>
       <use xlink:href="#mc4a2188b08" x="87.332868" y="409.569269" style="stroke: #000000; stroke-width: 0.8"/>
      </g>
     </g>
    </g>
    <g id="xtick_16">
     <g id="line2d_51">
      <path d="M 191.227622 409.569269 
L 191.227622 287.123145 
" clip-path="url(#p9035d91bbd)" style="fill: none; stroke: #b0b0b0; stroke-opacity: 0.25; stroke-width: 0.4; stroke-linecap: square"/>
     </g>
     <g id="line2d_52">
      <g>
       <use xlink:href="#mc4a2188b08" x="191.227622" y="409.569269" style="stroke: #000000; stroke-width: 0.8"/>
      </g>
     </g>
    </g>
    <g id="xtick_17">
     <g id="line2d_53">
      <path d="M 295.122376 409.569269 
L 295.122376 287.123145 
" clip-path="url(#p9035d91bbd)" style="fill: none; stroke: #b0b0b0; stroke-opacity: 0.25; stroke-width: 0.4; stroke-linecap: square"/>
     </g>
     <g id="line2d_54">
      <g>
       <use xlink:href="#mc4a2188b08" x="295.122376" y="409.569269" style="stroke: #000000; stroke-width: 0.8"/>
      </g>
     </g>
    </g>
    <g id="xtick_18">
     <g id="line2d_55">
      <path d="M 399.017131 409.569269 
L 399.017131 287.123145 
" clip-path="url(#p9035d91bbd)" style="fill: none; stroke: #b0b0b0; stroke-opacity: 0.25; stroke-width: 0.4; stroke-linecap: square"/>
     </g>
     <g id="line2d_56">
      <g>
       <use xlink:href="#mc4a2188b08" x="399.017131" y="409.569269" style="stroke: #000000; stroke-width: 0.8"/>
      </g>
     </g>
    </g>
    <g id="xtick_19">
     <g id="line2d_57">
      <path d="M 502.911885 409.569269 
L 502.911885 287.123145 
" clip-path="url(#p9035d91bbd)" style="fill: none; stroke: #b0b0b0; stroke-opacity: 0.25; stroke-width: 0.4; stroke-linecap: square"/>
     </g>
     <g id="line2d_58">
      <g>
       <use xlink:href="#mc4a2188b08" x="502.911885" y="409.569269" style="stroke: #000000; stroke-width: 0.8"/>
      </g>
     </g>
    </g>
    <g id="xtick_20">
     <g id="line2d_59">
      <path d="M 606.806639 409.569269 
L 606.806639 287.123145 
" clip-path="url(#p9035d91bbd)" style="fill: none; stroke: #b0b0b0; stroke-opacity: 0.25; stroke-width: 0.4; stroke-linecap: square"/>
     </g>
     <g id="line2d_60">
      <g>
       <use xlink:href="#mc4a2188b08" x="606.806639" y="409.569269" style="stroke: #000000; stroke-width: 0.8"/>
      </g>
     </g>
    </g>
    <g id="xtick_21">
     <g id="line2d_61">
      <path d="M 710.701393 409.569269 
L 710.701393 287.123145 
" clip-path="url(#p9035d91bbd)" style="fill: none; stroke: #b0b0b0; stroke-opacity: 0.25; stroke-width: 0.4; stroke-linecap: square"/>
     </g>
     <g id="line2d_62">
      <g>
       <use xlink:href="#mc4a2188b08" x="710.701393" y="409.569269" style="stroke: #000000; stroke-width: 0.8"/>
      </g>
     </g>
    </g>
   </g>
   <g id="matplotlib.axis_6">
    <g id="ytick_9">
     <g id="line2d_63">
      <path d="M 57.195859 404.003536 
L 720.210046 404.003536 
" clip-path="url(#p9035d91bbd)" style="fill: none; stroke: #b0b0b0; stroke-opacity: 0.25; stroke-width: 0.4; stroke-linecap: square"/>
     </g>
     <g id="line2d_64">
      <g>
       <use xlink:href="#m5a8a1deeae" x="57.195859" y="404.003536" style="stroke: #000000; stroke-width: 0.8"/>
      </g>
     </g>
     <g id="text_12">
      <!-- 21.0 -->
      <g transform="translate(25.703672 408.182247) scale(0.11 -0.11)">
       <defs>
        <path id="DejaVuSans-11" d="M 684 794 
L 1344 794 
L 1344 0 
L 684 0 
L 684 794 
z
" transform="scale(0.015625)"/>
       </defs>
       <use xlink:href="#DejaVuSans-15"/>
       <use xlink:href="#DejaVuSans-14" transform="translate(63.625 0)"/>
       <use xlink:href="#DejaVuSans-11" transform="translate(127.25 0)"/>
       <use xlink:href="#DejaVuSans-13" transform="translate(159.03125 0)"/>
      </g>
     </g>
    </g>
    <g id="ytick_10">
     <g id="line2d_65">
      <path d="M 57.195859 369.217706 
L 720.210046 369.217706 
" clip-path="url(#p9035d91bbd)" style="fill: none; stroke: #b0b0b0; stroke-opacity: 0.25; stroke-width: 0.4; stroke-linecap: square"/>
     </g>
     <g id="line2d_66">
      <g>
       <use xlink:href="#m5a8a1deeae" x="57.195859" y="369.217706" style="stroke: #000000; stroke-width: 0.8"/>
      </g>
     </g>
     <g id="text_13">
      <!-- 21.5 -->
      <g transform="translate(25.703672 373.396417) scale(0.11 -0.11)">
       <use xlink:href="#DejaVuSans-15"/>
       <use xlink:href="#DejaVuSans-14" transform="translate(63.625 0)"/>
       <use xlink:href="#DejaVuSans-11" transform="translate(127.25 0)"/>
       <use xlink:href="#DejaVuSans-18" transform="translate(159.03125 0)"/>
      </g>
     </g>
    </g>
    <g id="ytick_11">
     <g id="line2d_67">
      <path d="M 57.195859 334.431875 
L 720.210046 334.431875 
" clip-path="url(#p9035d91bbd)" style="fill: none; stroke: #b0b0b0; stroke-opacity: 0.25; stroke-width: 0.4; stroke-linecap: square"/>
     </g>
     <g id="line2d_68">
      <g>
       <use xlink:href="#m5a8a1deeae" x="57.195859" y="334.431875" style="stroke: #000000; stroke-width: 0.8"/>
      </g>
     </g>
     <g id="text_14">
      <!-- 22.0 -->
      <g transform="translate(25.703672 338.610586) scale(0.11 -0.11)">
       <use xlink:href="#DejaVuSans-15"/>
       <use xlink:href="#DejaVuSans-15" transform="translate(63.625 0)"/>
       <use xlink:href="#DejaVuSans-11" transform="translate(127.25 0)"/>
       <use xlink:href="#DejaVuSans-13" transform="translate(159.03125 0)"/>
      </g>
     </g>
    </g>
    <g id="ytick_12">
     <g id="line2d_69">
      <path d="M 57.195859 299.646044 
L 720.210046 299.646044 
" clip-path="url(#p9035d91bbd)" style="fill: none; stroke: #b0b0b0; stroke-opacity: 0.25; stroke-width: 0.4; stroke-linecap: square"/>
     </g>
     <g id="line2d_70">
      <g>
       <use xlink:href="#m5a8a1deeae" x="57.195859" y="299.646044" style="stroke: #000000; stroke-width: 0.8"/>
      </g>
     </g>
     <g id="text_15">
      <!-- 22.5 -->
      <g transform="translate(25.703672 303.824755) scale(0.11 -0.11)">
       <use xlink:href="#DejaVuSans-15"/>
       <use xlink:href="#DejaVuSans-15" transform="translate(63.625 0)"/>
       <use xlink:href="#DejaVuSans-11" transform="translate(127.25 0)"/>
       <use xlink:href="#DejaVuSans-18" transform="translate(159.03125 0)"/>
      </g>
     </g>
    </g>
    <g id="text_16">
     <!-- v [m/s] -->
     <g transform="translate(19.061094 367.71652) rotate(-90) scale(0.11 -0.11)">
      <defs>
       <path id="DejaVuSans-59" d="M 191 3500 
L 800 3500 
L 1894 563 
L 2988 3500 
L 3597 3500 
L 2284 0 
L 1503 0 
L 191 3500 
z
" transform="scale(0.015625)"/>
       <path id="DejaVuSans-12" d="M 1625 4666 
L 2156 4666 
L 531 -594 
L 0 -594 
L 1625 4666 
z
" transform="scale(0.015625)"/>
      </defs>
      <use xlink:href="#DejaVuSans-59"/>
      <use xlink:href="#DejaVuSans-3" transform="translate(59.1875 0)"/>
      <use xlink:href="#DejaVuSans-3e" transform="translate(90.96875 0)"/>
      <use xlink:href="#DejaVuSans-50" transform="translate(129.984375 0)"/>
      <use xlink:href="#DejaVuSans-12" transform="translate(227.390625 0)"/>
      <use xlink:href="#DejaVuSans-56" transform="translate(261.078125 0)"/>
      <use xlink:href="#DejaVuSans-40" transform="translate(313.171875 0)"/>
     </g>
    </g>
   </g>
   <g id="line2d_71">
    <path d="M 87.332868 404.003536 
L 297.020728 404.003536 
L 297.020728 404.003536 
L 297.020728 292.688878 
L 690.073037 292.688878 
L 690.073037 292.688878 
" clip-path="url(#p9035d91bbd)" style="fill: none; stroke: #9467bd; stroke-width: 2.2; stroke-linecap: square"/>
   </g>
   <g id="line2d_72">
    <path d="M 297.020728 409.569269 
L 297.020728 287.123145 
" clip-path="url(#p9035d91bbd)" style="fill: none; stroke-dasharray: 4.44,1.92; stroke-dashoffset: 0; stroke: #696969; stroke-width: 1.2"/>
   </g>
   <g id="patch_13">
    <path d="M 57.195859 409.569269 
L 57.195859 287.123145 
" style="fill: none; stroke: #000000; stroke-width: 0.8; stroke-linejoin: miter; stroke-linecap: square"/>
   </g>
   <g id="patch_14">
    <path d="M 720.210046 409.569269 
L 720.210046 287.123145 
" style="fill: none; stroke: #000000; stroke-width: 0.8; stroke-linejoin: miter; stroke-linecap: square"/>
   </g>
   <g id="patch_15">
    <path d="M 57.195859 409.569269 
L 720.210046 409.569269 
" style="fill: none; stroke: #000000; stroke-width: 0.8; stroke-linejoin: miter; stroke-linecap: square"/>
   </g>
   <g id="patch_16">
    <path d="M 57.195859 287.123145 
L 720.210046 287.123145 
" style="fill: none; stroke: #000000; stroke-width: 0.8; stroke-linejoin: miter; stroke-linecap: square"/>
   </g>
  </g>
  <g id="axes_4">
   <g id="patch_17">
    <path d="M 57.195859 541.515873 
L 720.210046 541.515873 
L 720.210046 419.069749 
L 57.195859 419.069749 
z
" style="fill: #ffffff"/>
   </g>
   <g id="matplotlib.axis_7">
    <g id="xtick_22">
     <g id="line2d_73">
      <path d="M 87.332868 541.515873 
L 87.332868 419.069749 
" clip-path="url(#p711763b98f)" style="fill: none; stroke: #b0b0b0; stroke-opacity: 0.25; stroke-width: 0.4; stroke-linecap: square"/>
     </g>
     <g id="line2d_74">
      <g>
       <use xlink:href="#mc4a2188b08" x="87.332868" y="541.515873" style="stroke: #000000; stroke-width: 0.8"/>
      </g>
     </g>
     <g id="text_17">
      <!-- 0 -->
      <g transform="translate(83.833493 556.873295) scale(0.11 -0.11)">
       <use xlink:href="#DejaVuSans-13"/>
      </g>
     </g>
    </g>
    <g id="xtick_23">
     <g id="line2d_75">
      <path d="M 191.227622 541.515873 
L 191.227622 419.069749 
" clip-path="url(#p711763b98f)" style="fill: none; stroke: #b0b0b0; stroke-opacity: 0.25; stroke-width: 0.4; stroke-linecap: square"/>
     </g>
     <g id="line2d_76">
      <g>
       <use xlink:href="#mc4a2188b08" x="191.227622" y="541.515873" style="stroke: #000000; stroke-width: 0.8"/>
      </g>
     </g>
     <g id="text_18">
      <!-- 20 -->
      <g transform="translate(184.228872 556.873295) scale(0.11 -0.11)">
       <use xlink:href="#DejaVuSans-15"/>
       <use xlink:href="#DejaVuSans-13" transform="translate(63.625 0)"/>
      </g>
     </g>
    </g>
    <g id="xtick_24">
     <g id="line2d_77">
      <path d="M 295.122376 541.515873 
L 295.122376 419.069749 
" clip-path="url(#p711763b98f)" style="fill: none; stroke: #b0b0b0; stroke-opacity: 0.25; stroke-width: 0.4; stroke-linecap: square"/>
     </g>
     <g id="line2d_78">
      <g>
       <use xlink:href="#mc4a2188b08" x="295.122376" y="541.515873" style="stroke: #000000; stroke-width: 0.8"/>
      </g>
     </g>
     <g id="text_19">
      <!-- 40 -->
      <g transform="translate(288.123626 556.873295) scale(0.11 -0.11)">
       <defs>
        <path id="DejaVuSans-17" d="M 2419 4116 
L 825 1625 
L 2419 1625 
L 2419 4116 
z
M 2253 4666 
L 3047 4666 
L 3047 1625 
L 3713 1625 
L 3713 1100 
L 3047 1100 
L 3047 0 
L 2419 0 
L 2419 1100 
L 313 1100 
L 313 1709 
L 2253 4666 
z
" transform="scale(0.015625)"/>
       </defs>
       <use xlink:href="#DejaVuSans-17"/>
       <use xlink:href="#DejaVuSans-13" transform="translate(63.625 0)"/>
      </g>
     </g>
    </g>
    <g id="xtick_25">
     <g id="line2d_79">
      <path d="M 399.017131 541.515873 
L 399.017131 419.069749 
" clip-path="url(#p711763b98f)" style="fill: none; stroke: #b0b0b0; stroke-opacity: 0.25; stroke-width: 0.4; stroke-linecap: square"/>
     </g>
     <g id="line2d_80">
      <g>
       <use xlink:href="#mc4a2188b08" x="399.017131" y="541.515873" style="stroke: #000000; stroke-width: 0.8"/>
      </g>
     </g>
     <g id="text_20">
      <!-- 60 -->
      <g transform="translate(392.018381 556.873295) scale(0.11 -0.11)">
       <defs>
        <path id="DejaVuSans-19" d="M 2113 2584 
Q 1688 2584 1439 2293 
Q 1191 2003 1191 1497 
Q 1191 994 1439 701 
Q 1688 409 2113 409 
Q 2538 409 2786 701 
Q 3034 994 3034 1497 
Q 3034 2003 2786 2293 
Q 2538 2584 2113 2584 
z
M 3366 4563 
L 3366 3988 
Q 3128 4100 2886 4159 
Q 2644 4219 2406 4219 
Q 1781 4219 1451 3797 
Q 1122 3375 1075 2522 
Q 1259 2794 1537 2939 
Q 1816 3084 2150 3084 
Q 2853 3084 3261 2657 
Q 3669 2231 3669 1497 
Q 3669 778 3244 343 
Q 2819 -91 2113 -91 
Q 1303 -91 875 529 
Q 447 1150 447 2328 
Q 447 3434 972 4092 
Q 1497 4750 2381 4750 
Q 2619 4750 2861 4703 
Q 3103 4656 3366 4563 
z
" transform="scale(0.015625)"/>
       </defs>
       <use xlink:href="#DejaVuSans-19"/>
       <use xlink:href="#DejaVuSans-13" transform="translate(63.625 0)"/>
      </g>
     </g>
    </g>
    <g id="xtick_26">
     <g id="line2d_81">
      <path d="M 502.911885 541.515873 
L 502.911885 419.069749 
" clip-path="url(#p711763b98f)" style="fill: none; stroke: #b0b0b0; stroke-opacity: 0.25; stroke-width: 0.4; stroke-linecap: square"/>
     </g>
     <g id="line2d_82">
      <g>
       <use xlink:href="#mc4a2188b08" x="502.911885" y="541.515873" style="stroke: #000000; stroke-width: 0.8"/>
      </g>
     </g>
     <g id="text_21">
      <!-- 80 -->
      <g transform="translate(495.913135 556.873295) scale(0.11 -0.11)">
       <defs>
        <path id="DejaVuSans-1b" d="M 2034 2216 
Q 1584 2216 1326 1975 
Q 1069 1734 1069 1313 
Q 1069 891 1326 650 
Q 1584 409 2034 409 
Q 2484 409 2743 651 
Q 3003 894 3003 1313 
Q 3003 1734 2745 1975 
Q 2488 2216 2034 2216 
z
M 1403 2484 
Q 997 2584 770 2862 
Q 544 3141 544 3541 
Q 544 4100 942 4425 
Q 1341 4750 2034 4750 
Q 2731 4750 3128 4425 
Q 3525 4100 3525 3541 
Q 3525 3141 3298 2862 
Q 3072 2584 2669 2484 
Q 3125 2378 3379 2068 
Q 3634 1759 3634 1313 
Q 3634 634 3220 271 
Q 2806 -91 2034 -91 
Q 1263 -91 848 271 
Q 434 634 434 1313 
Q 434 1759 690 2068 
Q 947 2378 1403 2484 
z
M 1172 3481 
Q 1172 3119 1398 2916 
Q 1625 2713 2034 2713 
Q 2441 2713 2670 2916 
Q 2900 3119 2900 3481 
Q 2900 3844 2670 4047 
Q 2441 4250 2034 4250 
Q 1625 4250 1398 4047 
Q 1172 3844 1172 3481 
z
" transform="scale(0.015625)"/>
       </defs>
       <use xlink:href="#DejaVuSans-1b"/>
       <use xlink:href="#DejaVuSans-13" transform="translate(63.625 0)"/>
      </g>
     </g>
    </g>
    <g id="xtick_27">
     <g id="line2d_83">
      <path d="M 606.806639 541.515873 
L 606.806639 419.069749 
" clip-path="url(#p711763b98f)" style="fill: none; stroke: #b0b0b0; stroke-opacity: 0.25; stroke-width: 0.4; stroke-linecap: square"/>
     </g>
     <g id="line2d_84">
      <g>
       <use xlink:href="#mc4a2188b08" x="606.806639" y="541.515873" style="stroke: #000000; stroke-width: 0.8"/>
      </g>
     </g>
     <g id="text_22">
      <!-- 100 -->
      <g transform="translate(596.308514 556.873295) scale(0.11 -0.11)">
       <use xlink:href="#DejaVuSans-14"/>
       <use xlink:href="#DejaVuSans-13" transform="translate(63.625 0)"/>
       <use xlink:href="#DejaVuSans-13" transform="translate(127.25 0)"/>
      </g>
     </g>
    </g>
    <g id="xtick_28">
     <g id="line2d_85">
      <path d="M 710.701393 541.515873 
L 710.701393 419.069749 
" clip-path="url(#p711763b98f)" style="fill: none; stroke: #b0b0b0; stroke-opacity: 0.25; stroke-width: 0.4; stroke-linecap: square"/>
     </g>
     <g id="line2d_86">
      <g>
       <use xlink:href="#mc4a2188b08" x="710.701393" y="541.515873" style="stroke: #000000; stroke-width: 0.8"/>
      </g>
     </g>
     <g id="text_23">
      <!-- 120 -->
      <g transform="translate(700.203268 556.873295) scale(0.11 -0.11)">
       <use xlink:href="#DejaVuSans-14"/>
       <use xlink:href="#DejaVuSans-15" transform="translate(63.625 0)"/>
       <use xlink:href="#DejaVuSans-13" transform="translate(127.25 0)"/>
      </g>
     </g>
    </g>
    <g id="text_24">
     <!-- Mission time [s] -->
     <g transform="translate(345.241781 571.874155) scale(0.11 -0.11)">
      <defs>
       <path id="DejaVuSans-30" d="M 628 4666 
L 1569 4666 
L 2759 1491 
L 3956 4666 
L 4897 4666 
L 4897 0 
L 4281 0 
L 4281 4097 
L 3078 897 
L 2444 897 
L 1241 4097 
L 1241 0 
L 628 0 
L 628 4666 
z
" transform="scale(0.015625)"/>
       <path id="DejaVuSans-51" d="M 3513 2113 
L 3513 0 
L 2938 0 
L 2938 2094 
Q 2938 2591 2744 2837 
Q 2550 3084 2163 3084 
Q 1697 3084 1428 2787 
Q 1159 2491 1159 1978 
L 1159 0 
L 581 0 
L 581 3500 
L 1159 3500 
L 1159 2956 
Q 1366 3272 1645 3428 
Q 1925 3584 2291 3584 
Q 2894 3584 3203 3211 
Q 3513 2838 3513 2113 
z
" transform="scale(0.015625)"/>
      </defs>
      <use xlink:href="#DejaVuSans-30"/>
      <use xlink:href="#DejaVuSans-4c" transform="translate(86.28125 0)"/>
      <use xlink:href="#DejaVuSans-56" transform="translate(114.0625 0)"/>
      <use xlink:href="#DejaVuSans-56" transform="translate(166.15625 0)"/>
      <use xlink:href="#DejaVuSans-4c" transform="translate(218.25 0)"/>
      <use xlink:href="#DejaVuSans-52" transform="translate(246.03125 0)"/>
      <use xlink:href="#DejaVuSans-51" transform="translate(307.21875 0)"/>
      <use xlink:href="#DejaVuSans-3" transform="translate(370.59375 0)"/>
      <use xlink:href="#DejaVuSans-57" transform="translate(402.375 0)"/>
      <use xlink:href="#DejaVuSans-4c" transform="translate(441.578125 0)"/>
      <use xlink:href="#DejaVuSans-50" transform="translate(469.359375 0)"/>
      <use xlink:href="#DejaVuSans-48" transform="translate(566.765625 0)"/>
      <use xlink:href="#DejaVuSans-3" transform="translate(628.296875 0)"/>
      <use xlink:href="#DejaVuSans-3e" transform="translate(660.078125 0)"/>
      <use xlink:href="#DejaVuSans-56" transform="translate(699.09375 0)"/>
      <use xlink:href="#DejaVuSans-40" transform="translate(751.1875 0)"/>
     </g>
    </g>
   </g>
   <g id="matplotlib.axis_8">
    <g id="ytick_13">
     <g id="line2d_87">
      <path d="M 57.195859 537.643808 
L 720.210046 537.643808 
" clip-path="url(#p711763b98f)" style="fill: none; stroke: #b0b0b0; stroke-opacity: 0.25; stroke-width: 0.4; stroke-linecap: square"/>
     </g>
     <g id="line2d_88">
      <g>
       <use xlink:href="#m5a8a1deeae" x="57.195859" y="537.643808" style="stroke: #000000; stroke-width: 0.8"/>
      </g>
     </g>
     <g id="text_25">
      <!-- −40 -->
      <g transform="translate(26.980703 541.822519) scale(0.11 -0.11)">
       <defs>
        <path id="DejaVuSans-c9c" d="M 678 2272 
L 4684 2272 
L 4684 1741 
L 678 1741 
L 678 2272 
z
" transform="scale(0.015625)"/>
       </defs>
       <use xlink:href="#DejaVuSans-c9c"/>
       <use xlink:href="#DejaVuSans-17" transform="translate(83.796875 0)"/>
       <use xlink:href="#DejaVuSans-13" transform="translate(147.421875 0)"/>
      </g>
     </g>
    </g>
    <g id="ytick_14">
     <g id="line2d_89">
      <path d="M 57.195859 495.447499 
L 720.210046 495.447499 
" clip-path="url(#p711763b98f)" style="fill: none; stroke: #b0b0b0; stroke-opacity: 0.25; stroke-width: 0.4; stroke-linecap: square"/>
     </g>
     <g id="line2d_90">
      <g>
       <use xlink:href="#m5a8a1deeae" x="57.195859" y="495.447499" style="stroke: #000000; stroke-width: 0.8"/>
      </g>
     </g>
     <g id="text_26">
      <!-- −20 -->
      <g transform="translate(26.980703 499.62621) scale(0.11 -0.11)">
       <use xlink:href="#DejaVuSans-c9c"/>
       <use xlink:href="#DejaVuSans-15" transform="translate(83.796875 0)"/>
       <use xlink:href="#DejaVuSans-13" transform="translate(147.421875 0)"/>
      </g>
     </g>
    </g>
    <g id="ytick_15">
     <g id="line2d_91">
      <path d="M 57.195859 453.25119 
L 720.210046 453.25119 
" clip-path="url(#p711763b98f)" style="fill: none; stroke: #b0b0b0; stroke-opacity: 0.25; stroke-width: 0.4; stroke-linecap: square"/>
     </g>
     <g id="line2d_92">
      <g>
       <use xlink:href="#m5a8a1deeae" x="57.195859" y="453.25119" style="stroke: #000000; stroke-width: 0.8"/>
      </g>
     </g>
     <g id="text_27">
      <!-- 0 -->
      <g transform="translate(43.197109 457.429901) scale(0.11 -0.11)">
       <use xlink:href="#DejaVuSans-13"/>
      </g>
     </g>
    </g>
    <g id="text_28">
     <!-- gamma [deg] -->
     <g transform="translate(20.338125 517.647265) rotate(-90) scale(0.11 -0.11)">
      <defs>
       <path id="DejaVuSans-47" d="M 2906 2969 
L 2906 4863 
L 3481 4863 
L 3481 0 
L 2906 0 
L 2906 525 
Q 2725 213 2448 61 
Q 2172 -91 1784 -91 
Q 1150 -91 751 415 
Q 353 922 353 1747 
Q 353 2572 751 3078 
Q 1150 3584 1784 3584 
Q 2172 3584 2448 3432 
Q 2725 3281 2906 2969 
z
M 947 1747 
Q 947 1113 1208 752 
Q 1469 391 1925 391 
Q 2381 391 2643 752 
Q 2906 1113 2906 1747 
Q 2906 2381 2643 2742 
Q 2381 3103 1925 3103 
Q 1469 3103 1208 2742 
Q 947 2381 947 1747 
z
" transform="scale(0.015625)"/>
      </defs>
      <use xlink:href="#DejaVuSans-4a"/>
      <use xlink:href="#DejaVuSans-44" transform="translate(63.484375 0)"/>
      <use xlink:href="#DejaVuSans-50" transform="translate(124.765625 0)"/>
      <use xlink:href="#DejaVuSans-50" transform="translate(222.171875 0)"/>
      <use xlink:href="#DejaVuSans-44" transform="translate(319.578125 0)"/>
      <use xlink:href="#DejaVuSans-3" transform="translate(380.859375 0)"/>
      <use xlink:href="#DejaVuSans-3e" transform="translate(412.640625 0)"/>
      <use xlink:href="#DejaVuSans-47" transform="translate(451.65625 0)"/>
      <use xlink:href="#DejaVuSans-48" transform="translate(515.140625 0)"/>
      <use xlink:href="#DejaVuSans-4a" transform="translate(576.671875 0)"/>
      <use xlink:href="#DejaVuSans-40" transform="translate(640.15625 0)"/>
     </g>
    </g>
   </g>
   <g id="line2d_93">
    <path d="M 87.332868 424.635482 
L 297.020728 424.635482 
L 297.020728 424.635482 
L 297.020728 456.975973 
L 302.942569 456.975973 
L 302.942569 457.943143 
L 622.811082 457.943143 
L 622.811082 460.284707 
L 626.763791 460.284707 
L 626.763791 474.164412 
L 630.769608 474.164412 
L 630.769608 480.923336 
L 632.795467 480.923336 
L 632.795467 487.510797 
L 636.905444 487.510797 
L 636.905444 500.053603 
L 641.16689 500.053603 
L 641.16689 505.966024 
L 645.520328 505.966024 
L 645.520328 517.011501 
L 652.370326 517.011501 
L 652.370326 526.996727 
L 659.59203 526.996727 
L 659.59203 535.95014 
L 682.505145 535.95014 
L 682.505145 526.996727 
L 690.073037 526.996727 
L 690.073037 526.996727 
" clip-path="url(#p711763b98f)" style="fill: none; stroke: #9467bd; stroke-width: 2.2; stroke-linecap: square"/>
   </g>
   <g id="line2d_94">
    <path d="M 297.020728 541.515873 
L 297.020728 419.069749 
" clip-path="url(#p711763b98f)" style="fill: none; stroke-dasharray: 4.44,1.92; stroke-dashoffset: 0; stroke: #696969; stroke-width: 1.2"/>
   </g>
   <g id="patch_18">
    <path d="M 57.195859 541.515873 
L 57.195859 419.069749 
" style="fill: none; stroke: #000000; stroke-width: 0.8; stroke-linejoin: miter; stroke-linecap: square"/>
   </g>
   <g id="patch_19">
    <path d="M 720.210046 541.515873 
L 720.210046 419.069749 
" style="fill: none; stroke: #000000; stroke-width: 0.8; stroke-linejoin: miter; stroke-linecap: square"/>
   </g>
   <g id="patch_20">
    <path d="M 57.195859 541.515873 
L 720.210046 541.515873 
" style="fill: none; stroke: #000000; stroke-width: 0.8; stroke-linejoin: miter; stroke-linecap: square"/>
   </g>
   <g id="patch_21">
    <path d="M 57.195859 419.069749 
L 720.210046 419.069749 
" style="fill: none; stroke: #000000; stroke-width: 0.8; stroke-linejoin: miter; stroke-linecap: square"/>
   </g>
   <g id="legend_1">
    <g id="patch_22">
     <path d="M 64.895859 605.999492 
L 454.055234 605.999492 
Q 456.255234 605.999492 456.255234 603.799492 
L 456.255234 588.398633 
Q 456.255234 586.198633 454.055234 586.198633 
L 64.895859 586.198633 
Q 62.695859 586.198633 62.695859 588.398633 
L 62.695859 603.799492 
Q 62.695859 605.999492 64.895859 605.999492 
z
" style="fill: #ffffff; opacity: 0.8; stroke: #cccccc; stroke-linejoin: miter"/>
    </g>
    <g id="line2d_95">
     <path d="M 67.095859 595.106914 
L 78.095859 595.106914 
L 78.095859 595.106914 
L 89.095859 595.106914 
L 89.095859 595.106914 
" style="fill: none; stroke: #9467bd; stroke-width: 2.2; stroke-linecap: square"/>
    </g>
    <g id="text_29">
     <!-- Bellman-optimal attacker state -->
     <g transform="translate(97.895859 598.956914) scale(0.11 -0.11)">
      <defs>
       <path id="DejaVuSans-25" d="M 1259 2228 
L 1259 519 
L 2272 519 
Q 2781 519 3026 730 
Q 3272 941 3272 1375 
Q 3272 1813 3026 2020 
Q 2781 2228 2272 2228 
L 1259 2228 
z
M 1259 4147 
L 1259 2741 
L 2194 2741 
Q 2656 2741 2882 2914 
Q 3109 3088 3109 3444 
Q 3109 3797 2882 3972 
Q 2656 4147 2194 4147 
L 1259 4147 
z
M 628 4666 
L 2241 4666 
Q 2963 4666 3353 4366 
Q 3744 4066 3744 3513 
Q 3744 3084 3544 2831 
Q 3344 2578 2956 2516 
Q 3422 2416 3680 2098 
Q 3938 1781 3938 1306 
Q 3938 681 3513 340 
Q 3088 0 2303 0 
L 628 0 
L 628 4666 
z
" transform="scale(0.015625)"/>
       <path id="DejaVuSans-10" d="M 313 2009 
L 1997 2009 
L 1997 1497 
L 313 1497 
L 313 2009 
z
" transform="scale(0.015625)"/>
      </defs>
      <use xlink:href="#DejaVuSans-25"/>
      <use xlink:href="#DejaVuSans-48" transform="translate(68.609375 0)"/>
      <use xlink:href="#DejaVuSans-4f" transform="translate(130.140625 0)"/>
      <use xlink:href="#DejaVuSans-4f" transform="translate(157.921875 0)"/>
      <use xlink:href="#DejaVuSans-50" transform="translate(185.703125 0)"/>
      <use xlink:href="#DejaVuSans-44" transform="translate(283.109375 0)"/>
      <use xlink:href="#DejaVuSans-51" transform="translate(344.390625 0)"/>
      <use xlink:href="#DejaVuSans-10" transform="translate(407.765625 0)"/>
      <use xlink:href="#DejaVuSans-52" transform="translate(445.703125 0)"/>
      <use xlink:href="#DejaVuSans-53" transform="translate(506.890625 0)"/>
      <use xlink:href="#DejaVuSans-57" transform="translate(570.375 0)"/>
      <use xlink:href="#DejaVuSans-4c" transform="translate(609.578125 0)"/>
      <use xlink:href="#DejaVuSans-50" transform="translate(637.359375 0)"/>
      <use xlink:href="#DejaVuSans-44" transform="translate(734.765625 0)"/>
      <use xlink:href="#DejaVuSans-4f" transform="translate(796.046875 0)"/>
      <use xlink:href="#DejaVuSans-3" transform="translate(823.828125 0)"/>
      <use xlink:href="#DejaVuSans-44" transform="translate(855.609375 0)"/>
      <use xlink:href="#DejaVuSans-57" transform="translate(916.890625 0)"/>
      <use xlink:href="#DejaVuSans-57" transform="translate(956.09375 0)"/>
      <use xlink:href="#DejaVuSans-44" transform="translate(995.296875 0)"/>
      <use xlink:href="#DejaVuSans-46" transform="translate(1056.578125 0)"/>
      <use xlink:href="#DejaVuSans-4e" transform="translate(1111.5625 0)"/>
      <use xlink:href="#DejaVuSans-48" transform="translate(1165.90625 0)"/>
      <use xlink:href="#DejaVuSans-55" transform="translate(1227.4375 0)"/>
      <use xlink:href="#DejaVuSans-3" transform="translate(1268.546875 0)"/>
      <use xlink:href="#DejaVuSans-56" transform="translate(1300.328125 0)"/>
      <use xlink:href="#DejaVuSans-57" transform="translate(1352.421875 0)"/>
      <use xlink:href="#DejaVuSans-44" transform="translate(1391.625 0)"/>
      <use xlink:href="#DejaVuSans-57" transform="translate(1452.90625 0)"/>
      <use xlink:href="#DejaVuSans-48" transform="translate(1492.109375 0)"/>
     </g>
    </g>
    <g id="line2d_96">
     <path d="M 290.796328 595.106914 
L 301.796328 595.106914 
L 312.796328 595.106914 
" style="fill: none; stroke-dasharray: 4.44,1.92; stroke-dashoffset: 0; stroke: #696969; stroke-width: 1.2"/>
    </g>
    <g id="text_30">
     <!-- Powered to glide switch -->
     <g transform="translate(321.596328 598.956914) scale(0.11 -0.11)">
      <defs>
       <path id="DejaVuSans-33" d="M 1259 4147 
L 1259 2394 
L 2053 2394 
Q 2494 2394 2734 2622 
Q 2975 2850 2975 3272 
Q 2975 3691 2734 3919 
Q 2494 4147 2053 4147 
L 1259 4147 
z
M 628 4666 
L 2053 4666 
Q 2838 4666 3239 4311 
Q 3641 3956 3641 3272 
Q 3641 2581 3239 2228 
Q 2838 1875 2053 1875 
L 1259 1875 
L 1259 0 
L 628 0 
L 628 4666 
z
" transform="scale(0.015625)"/>
       <path id="DejaVuSans-5a" d="M 269 3500 
L 844 3500 
L 1563 769 
L 2278 3500 
L 2956 3500 
L 3675 769 
L 4391 3500 
L 4966 3500 
L 4050 0 
L 3372 0 
L 2619 2869 
L 1863 0 
L 1184 0 
L 269 3500 
z
" transform="scale(0.015625)"/>
      </defs>
      <use xlink:href="#DejaVuSans-33"/>
      <use xlink:href="#DejaVuSans-52" transform="translate(56.734375 0)"/>
      <use xlink:href="#DejaVuSans-5a" transform="translate(117.921875 0)"/>
      <use xlink:href="#DejaVuSans-48" transform="translate(199.703125 0)"/>
      <use xlink:href="#DejaVuSans-55" transform="translate(261.234375 0)"/>
      <use xlink:href="#DejaVuSans-48" transform="translate(300.140625 0)"/>
      <use xlink:href="#DejaVuSans-47" transform="translate(361.671875 0)"/>
      <use xlink:href="#DejaVuSans-3" transform="translate(425.15625 0)"/>
      <use xlink:href="#DejaVuSans-57" transform="translate(456.9375 0)"/>
      <use xlink:href="#DejaVuSans-52" transform="translate(496.140625 0)"/>
      <use xlink:href="#DejaVuSans-3" transform="translate(557.328125 0)"/>
      <use xlink:href="#DejaVuSans-4a" transform="translate(589.109375 0)"/>
      <use xlink:href="#DejaVuSans-4f" transform="translate(652.59375 0)"/>
      <use xlink:href="#DejaVuSans-4c" transform="translate(680.375 0)"/>
      <use xlink:href="#DejaVuSans-47" transform="translate(708.15625 0)"/>
      <use xlink:href="#DejaVuSans-48" transform="translate(771.640625 0)"/>
      <use xlink:href="#DejaVuSans-3" transform="translate(833.171875 0)"/>
      <use xlink:href="#DejaVuSans-56" transform="translate(864.953125 0)"/>
      <use xlink:href="#DejaVuSans-5a" transform="translate(917.046875 0)"/>
      <use xlink:href="#DejaVuSans-4c" transform="translate(998.828125 0)"/>
      <use xlink:href="#DejaVuSans-57" transform="translate(1026.609375 0)"/>
      <use xlink:href="#DejaVuSans-46" transform="translate(1065.8125 0)"/>
      <use xlink:href="#DejaVuSans-4b" transform="translate(1120.796875 0)"/>
     </g>
    </g>
   </g>
  </g>
 </g>
 <defs>
  <clipPath id="p29296db2a5">
   <rect x="57.195859" y="23.229937" width="663.014186" height="122.446124"/>
  </clipPath>
  <clipPath id="pfef771bf83">
   <rect x="57.195859" y="155.176541" width="663.014186" height="122.446124"/>
  </clipPath>
  <clipPath id="p9035d91bbd">
   <rect x="57.195859" y="287.123145" width="663.014186" height="122.446124"/>
  </clipPath>
  <clipPath id="p711763b98f">
   <rect x="57.195859" y="419.069749" width="663.014186" height="122.446124"/>
  </clipPath>
 </defs>
</svg>
