<?xml version="1.0" encoding="utf-8" standalone="no"?>
<!DOCTYPE svg PUBLIC "-//W3C//DTD SVG 1.1//EN"
  "http://www.w3.org/Graphics/SVG/1.1/DTD/svg11.dtd">
<svg xmlns:xlink="http://www.w3.org/1999/xlink" width="728.39952pt" height="613.199492pt" viewBox="0 0 728.39952 613.199492" xmlns="http://www.w3.org/2000/svg" version="1.1">
 <metadata>
  <rdf:RDF xmlns:dc="http://purl.org/dc/elements/1.1/" xmlns:cc="http://creativecommons.org/ns#" xmlns:rdf="http://www.w3.org/1999/02/22-rdf-syntax-ns#">
   <cc:Work>
    <dc:type rdf:resource="http://purl.org/dc/dcmitype/StillImage"/>
    <dc:date>2026-07-30T16:21:36.949824</dc:date>
    <dc:format>image/svg+xml</dc:format>
    <dc:creator>
     <cc:Agent>
      <dc:title>Matplotlib v3.11.0, https://matplotlib.org/</dc:title>
     </cc:Agent>
    </dc:creator>
   </cc:Work>
  </rdf:RDF>
 </metadata>
 <defs>
  <style type="text/css">*{stroke-linejoin: round; stroke-linecap: butt}</style>
 </defs>
 <g id="figure_1">
  <g id="patch_1">
   <path d="M 0 613.199492 
L 728.39952 613.199492 
L 728.39952 0 
L 0 0 
z
" style="fill: #ffffff"/>
  </g>
  <g id="axes_1">
   <g id="patch_2">
    <path d="M 57.195859 145.676061 
L 711.479533 145.676061 
L 711.479533 23.229937 
L 57.195859 23.229937 
z
" style="fill: #ffffff"/>
   </g>
   <g id="matplotlib.axis_1">
    <g id="xtick_1">
     <g id="line2d_1">
      <path d="M 86.936026 145.676061 
L 86.936026 23.229937 
" clip-path="url(#p720d52647a)" style="fill: none; stroke: #b0b0b0; stroke-opacity: 0.25; stroke-width: 0.4; stroke-linecap: square"/>
     </g>
     <g id="line2d_2">
      <defs>
       <path id="m33c3eb7186" d="M 0 0 
L 0 3.5 
" style="stroke: #000000; stroke-width: 0.8"/>
      </defs>
      <g>
       <use xlink:href="#m33c3eb7186" x="86.936026" y="145.676061" style="stroke: #000000; stroke-width: 0.8"/>
      </g>
     </g>
    </g>
    <g id="xtick_2">
     <g id="line2d_3">
      <path d="M 190.896921 145.676061 
L 190.896921 23.229937 
" clip-path="url(#p720d52647a)" style="fill: none; stroke: #b0b0b0; stroke-opacity: 0.25; stroke-width: 0.4; stroke-linecap: square"/>
     </g>
     <g id="line2d_4">
      <g>
       <use xlink:href="#m33c3eb7186" x="190.896921" y="145.676061" style="stroke: #000000; stroke-width: 0.8"/>
      </g>
     </g>
    </g>
    <g id="xtick_3">
     <g id="line2d_5">
      <path d="M 294.857816 145.676061 
L 294.857816 23.229937 
" clip-path="url(#p720d52647a)" style="fill: none; stroke: #b0b0b0; stroke-opacity: 0.25; stroke-width: 0.4; stroke-linecap: square"/>
     </g>
     <g id="line2d_6">
      <g>
       <use xlink:href="#m33c3eb7186" x="294.857816" y="145.676061" style="stroke: #000000; stroke-width: 0.8"/>
      </g>
     </g>
    </g>
    <g id="xtick_4">
     <g id="line2d_7">
      <path d="M 398.818711 145.676061 
L 398.818711 23.229937 
" clip-path="url(#p720d52647a)" style="fill: none; stroke: #b0b0b0; stroke-opacity: 0.25; stroke-width: 0.4; stroke-linecap: square"/>
     </g>
     <g id="line2d_8">
      <g>
       <use xlink:href="#m33c3eb7186" x="398.818711" y="145.676061" style="stroke: #000000; stroke-width: 0.8"/>
      </g>
     </g>
    </g>
    <g id="xtick_5">
     <g id="line2d_9">
      <path d="M 502.779605 145.676061 
L 502.779605 23.229937 
" clip-path="url(#p720d52647a)" style="fill: none; stroke: #b0b0b0; stroke-opacity: 0.25; stroke-width: 0.4; stroke-linecap: square"/>
     </g>
     <g id="line2d_10">
      <g>
       <use xlink:href="#m33c3eb7186" x="502.779605" y="145.676061" style="stroke: #000000; stroke-width: 0.8"/>
      </g>
     </g>
    </g>
    <g id="xtick_6">
     <g id="line2d_11">
      <path d="M 606.7405 145.676061 
L 606.7405 23.229937 
" clip-path="url(#p720d52647a)" style="fill: none; stroke: #b0b0b0; stroke-opacity: 0.25; stroke-width: 0.4; stroke-linecap: square"/>
     </g>
     <g id="line2d_12">
      <g>
       <use xlink:href="#m33c3eb7186" x="606.7405" y="145.676061" style="stroke: #000000; stroke-width: 0.8"/>
      </g>
     </g>
    </g>
    <g id="xtick_7">
     <g id="line2d_13">
      <path d="M 710.701395 145.676061 
L 710.701395 23.229937 
" clip-path="url(#p720d52647a)" style="fill: none; stroke: #b0b0b0; stroke-opacity: 0.25; stroke-width: 0.4; stroke-linecap: square"/>
     </g>
     <g id="line2d_14">
      <g>
       <use xlink:href="#m33c3eb7186" x="710.701395" y="145.676061" style="stroke: #000000; stroke-width: 0.8"/>
      </g>
     </g>
    </g>
   </g>
   <g id="matplotlib.axis_2">
    <g id="ytick_1">
     <g id="line2d_15">
      <path d="M 57.195859 140.110328 
L 711.479533 140.110328 
" clip-path="url(#p720d52647a)" style="fill: none; stroke: #b0b0b0; stroke-opacity: 0.25; stroke-width: 0.4; stroke-linecap: square"/>
     </g>
     <g id="line2d_16">
      <defs>
       <path id="m74880802d7" d="M 0 0 
L -3.5 0 
" style="stroke: #000000; stroke-width: 0.8"/>
      </defs>
      <g>
       <use xlink:href="#m74880802d7" x="57.195859" y="140.110328" style="stroke: #000000; stroke-width: 0.8"/>
      </g>
     </g>
     <g id="text_1">
      <!-- 0 -->
      <g transform="translate(43.197109 144.289039) scale(0.11 -0.11)">
       <defs>
        <path id="DejaVuSans-13" d="M 2034 4250 
Q 1547 4250 1301 3770 
Q 1056 3291 1056 2328 
Q 1056 1369 1301 889 
Q 1547 409 2034 409 
Q 2525 409 2770 889 
Q 3016 1369 3016 2328 
Q 3016 3291 2770 3770 
Q 2525 4250 2034 4250 
z
M 2034 4750 
Q 2819 4750 3233 4129 
Q 3647 3509 3647 2328 
Q 3647 1150 3233 529 
Q 2819 -91 2034 -91 
Q 1250 -91 836 529 
Q 422 1150 422 2328 
Q 422 3509 836 4129 
Q 1250 4750 2034 4750 
z
" transform="scale(0.015625)"/>
       </defs>
       <use xlink:href="#DejaVuSans-13"/>
      </g>
     </g>
    </g>
    <g id="ytick_2">
     <g id="line2d_17">
      <path d="M 57.195859 95.407044 
L 711.479533 95.407044 
" clip-path="url(#p720d52647a)" style="fill: none; stroke: #b0b0b0; stroke-opacity: 0.25; stroke-width: 0.4; stroke-linecap: square"/>
     </g>
     <g id="line2d_18">
      <g>
       <use xlink:href="#m74880802d7" x="57.195859" y="95.407044" style="stroke: #000000; stroke-width: 0.8"/>
      </g>
     </g>
     <g id="text_2">
      <!-- 1000 -->
      <g transform="translate(22.200859 99.585755) scale(0.11 -0.11)">
       <defs>
        <path id="DejaVuSans-14" d="M 794 531 
L 1825 531 
L 1825 4091 
L 703 3866 
L 703 4441 
L 1819 4666 
L 2450 4666 
L 2450 531 
L 3481 531 
L 3481 0 
L 794 0 
L 794 531 
z
" transform="scale(0.015625)"/>
       </defs>
       <use xlink:href="#DejaVuSans-14"/>
       <use xlink:href="#DejaVuSans-13" transform="translate(63.625 0)"/>
       <use xlink:href="#DejaVuSans-13" transform="translate(127.25 0)"/>
       <use xlink:href="#DejaVuSans-13" transform="translate(190.875 0)"/>
      </g>
     </g>
    </g>
    <g id="ytick_3">
     <g id="line2d_19">
      <path d="M 57.195859 50.70376 
L 711.479533 50.70376 
" clip-path="url(#p720d52647a)" style="fill: none; stroke: #b0b0b0; stroke-opacity: 0.25; stroke-width: 0.4; stroke-linecap: square"/>
     </g>
     <g id="line2d_20">
      <g>
       <use xlink:href="#m74880802d7" x="57.195859" y="50.70376" style="stroke: #000000; stroke-width: 0.8"/>
      </g>
     </g>
     <g id="text_3">
      <!-- 2000 -->
      <g transform="translate(22.200859 54.88247) scale(0.11 -0.11)">
       <defs>
        <path id="DejaVuSans-15" d="M 1228 531 
L 3431 531 
L 3431 0 
L 469 0 
L 469 531 
Q 828 903 1448 1529 
Q 2069 2156 2228 2338 
Q 2531 2678 2651 2914 
Q 2772 3150 2772 3378 
Q 2772 3750 2511 3984 
Q 2250 4219 1831 4219 
Q 1534 4219 1204 4116 
Q 875 4013 500 3803 
L 500 4441 
Q 881 4594 1212 4672 
Q 1544 4750 1819 4750 
Q 2544 4750 2975 4387 
Q 3406 4025 3406 3419 
Q 3406 3131 3298 2873 
Q 3191 2616 2906 2266 
Q 2828 2175 2409 1742 
Q 1991 1309 1228 531 
z
" transform="scale(0.015625)"/>
       </defs>
       <use xlink:href="#DejaVuSans-15"/>
       <use xlink:href="#DejaVuSans-13" transform="translate(63.625 0)"/>
       <use xlink:href="#DejaVuSans-13" transform="translate(127.25 0)"/>
       <use xlink:href="#DejaVuSans-13" transform="translate(190.875 0)"/>
      </g>
     </g>
    </g>
    <g id="text_4">
     <!-- z [m] -->
     <g transform="translate(15.558281 98.736671) rotate(-90) scale(0.11 -0.11)">
      <defs>
       <path id="DejaVuSans-5d" d="M 353 3500 
L 3084 3500 
L 3084 2975 
L 922 459 
L 3084 459 
L 3084 0 
L 275 0 
L 275 525 
L 2438 3041 
L 353 3041 
L 353 3500 
z
" transform="scale(0.015625)"/>
       <path id="DejaVuSans-3" transform="scale(0.015625)"/>
       <path id="DejaVuSans-3e" d="M 550 4863 
L 1875 4863 
L 1875 4416 
L 1125 4416 
L 1125 -397 
L 1875 -397 
L 1875 -844 
L 550 -844 
L 550 4863 
z
" transform="scale(0.015625)"/>
       <path id="DejaVuSans-50" d="M 3328 2828 
Q 3544 3216 3844 3400 
Q 4144 3584 4550 3584 
Q 5097 3584 5394 3201 
Q 5691 2819 5691 2113 
L 5691 0 
L 5113 0 
L 5113 2094 
Q 5113 2597 4934 2840 
Q 4756 3084 4391 3084 
Q 3944 3084 3684 2787 
Q 3425 2491 3425 1978 
L 3425 0 
L 2847 0 
L 2847 2094 
Q 2847 2600 2669 2842 
Q 2491 3084 2119 3084 
Q 1678 3084 1418 2786 
Q 1159 2488 1159 1978 
L 1159 0 
L 581 0 
L 581 3500 
L 1159 3500 
L 1159 2956 
Q 1356 3278 1631 3431 
Q 1906 3584 2284 3584 
Q 2666 3584 2933 3390 
Q 3200 3197 3328 2828 
z
" transform="scale(0.015625)"/>
       <path id="DejaVuSans-40" d="M 1947 4863 
L 1947 -844 
L 622 -844 
L 622 -397 
L 1369 -397 
L 1369 4416 
L 622 4416 
L 622 4863 
L 1947 4863 
z
" transform="scale(0.015625)"/>
      </defs>
      <use xlink:href="#DejaVuSans-5d"/>
      <use xlink:href="#DejaVuSans-3" transform="translate(52.484375 0)"/>
      <use xlink:href="#DejaVuSans-3e" transform="translate(84.265625 0)"/>
      <use xlink:href="#DejaVuSans-50" transform="translate(123.28125 0)"/>
      <use xlink:href="#DejaVuSans-40" transform="translate(220.6875 0)"/>
     </g>
    </g>
   </g>
   <g id="line2d_21">
    <path d="M 86.936026 140.110328 
L 104.287725 137.181041 
L 121.639423 134.251753 
L 138.991121 131.322466 
L 156.34282 128.393178 
L 173.694518 125.463891 
L 191.046216 122.534604 
L 208.397915 119.605316 
L 225.749613 116.676029 
L 227.726955 116.29186 
L 233.661152 115.139353 
L 239.59535 113.986847 
L 245.529547 112.83434 
L 251.463745 111.681833 
L 257.397942 110.529327 
L 263.33214 109.37682 
L 269.266337 108.224314 
L 275.200535 107.071807 
L 281.134732 105.919301 
L 287.06893 104.766794 
L 293.003127 103.614288 
L 298.937325 102.461781 
L 304.871522 101.309275 
L 310.80572 100.156768 
L 316.739917 99.004261 
L 322.674115 97.851755 
L 328.608312 96.699248 
L 334.54251 95.546742 
L 340.476707 94.394235 
L 346.410905 93.241729 
L 352.345102 92.089222 
L 358.2793 90.936716 
L 364.213497 89.784209 
L 370.147695 88.631702 
L 376.081893 87.479196 
L 382.01609 86.326689 
L 387.950288 85.174183 
L 393.884485 84.021676 
L 399.818683 82.86917 
L 405.75288 81.716663 
L 411.687078 80.564157 
L 417.621275 79.41165 
L 423.555473 78.259143 
L 429.48967 77.106637 
L 435.423868 75.95413 
L 441.358065 74.801624 
L 447.292263 73.649117 
L 453.22646 72.496611 
L 459.160658 71.344104 
L 465.094855 70.191598 
L 469.054699 69.42326 
L 471.044616 69.039091 
L 475.057542 68.270753 
L 479.116345 67.502416 
L 483.233381 66.734078 
L 489.442041 65.581571 
L 493.629152 64.813234 
L 497.816263 64.044896 
L 502.003374 63.276558 
L 506.190485 62.508221 
L 512.399145 61.355714 
L 518.543569 60.203208 
L 520.57297 59.819039 
L 522.602372 59.43487 
L 524.631773 59.050701 
L 526.661175 58.666532 
L 532.7014 57.514026 
L 536.714326 56.745688 
L 540.727252 55.97735 
L 546.727936 54.824844 
L 552.728621 53.672337 
L 558.729305 52.51983 
L 564.72999 51.367324 
L 570.730674 50.214817 
L 576.731358 49.062311 
L 582.732043 47.909804 
L 584.721959 47.525635 
L 586.711876 47.141467 
L 588.701792 46.757298 
L 590.691709 46.373129 
L 592.681625 45.98896 
L 594.671542 45.604791 
L 596.661458 45.220622 
L 598.651374 44.836453 
L 600.641291 44.452285 
L 602.631207 44.068116 
L 604.621124 43.683947 
L 606.61104 43.299778 
L 608.600957 42.915609 
L 610.590873 42.53144 
L 612.58079 42.147272 
L 614.570706 41.763103 
L 616.560623 41.378934 
L 618.550539 40.994765 
L 620.540455 40.610596 
L 622.530372 40.226427 
L 624.520288 39.842258 
L 626.510205 39.45809 
L 628.500121 39.073921 
L 630.490038 38.689752 
L 632.479954 38.305583 
L 634.469871 37.921414 
L 636.459787 37.537245 
L 638.449703 37.153076 
L 640.43962 36.768908 
L 642.429536 36.384739 
L 644.419453 36.00057 
L 646.409369 35.616401 
L 648.399286 35.232232 
L 650.389202 34.848063 
L 652.379119 34.463895 
L 654.369035 34.079726 
L 656.358952 33.695557 
L 658.348868 33.311388 
L 660.338784 32.927219 
L 662.328701 32.54305 
L 664.318617 32.158881 
L 666.308534 31.774713 
L 668.29845 31.390544 
L 670.288367 31.006375 
L 672.278283 30.622206 
L 674.2682 30.238037 
L 676.258116 29.853868 
L 678.248032 29.469699 
L 680.237949 29.085531 
L 681.739366 28.79567 
" clip-path="url(#p720d52647a)" style="fill: none; stroke: #9467bd; stroke-width: 2.2; stroke-linecap: square"/>
   </g>
   <g id="line2d_22">
    <path d="M 225.749613 145.676061 
L 225.749613 23.229937 
" clip-path="url(#p720d52647a)" style="fill: none; stroke-dasharray: 4.44,1.92; stroke-dashoffset: 0; stroke: #696969; stroke-width: 1.2"/>
   </g>
   <g id="patch_3">
    <path d="M 57.195859 145.676061 
L 57.195859 23.229937 
" style="fill: none; stroke: #000000; stroke-width: 0.8; stroke-linejoin: miter; stroke-linecap: square"/>
   </g>
   <g id="patch_4">
    <path d="M 711.479533 145.676061 
L 711.479533 23.229937 
" style="fill: none; stroke: #000000; stroke-width: 0.8; stroke-linejoin: miter; stroke-linecap: square"/>
   </g>
   <g id="patch_5">
    <path d="M 57.195859 145.676061 
L 711.479533 145.676061 
" style="fill: none; stroke: #000000; stroke-width: 0.8; stroke-linejoin: miter; stroke-linecap: square"/>
   </g>
   <g id="patch_6">
    <path d="M 57.195859 23.229937 
L 711.479533 23.229937 
" style="fill: none; stroke: #000000; stroke-width: 0.8; stroke-linejoin: miter; stroke-linecap: square"/>
   </g>
   <g id="text_5">
    <!-- Attacker Optimal Strategy: State History -->
    <g transform="translate(251.25179 17.229937) scale(0.132 -0.132)">
     <defs>
      <path id="DejaVuSans-24" d="M 2188 4044 
L 1331 1722 
L 3047 1722 
L 2188 4044 
z
M 1831 4666 
L 2547 4666 
L 4325 0 
L 3669 0 
L 3244 1197 
L 1141 1197 
L 716 0 
L 50 0 
L 1831 4666 
z
" transform="scale(0.015625)"/>
      <path id="DejaVuSans-57" d="M 1172 4494 
L 1172 3500 
L 2356 3500 
L 2356 3053 
L 1172 3053 
L 1172 1153 
Q 1172 725 1289 603 
Q 1406 481 1766 481 
L 2356 481 
L 2356 0 
L 1766 0 
Q 1100 0 847 248 
Q 594 497 594 1153 
L 594 3053 
L 172 3053 
L 172 3500 
L 594 3500 
L 594 4494 
L 1172 4494 
z
" transform="scale(0.015625)"/>
      <path id="DejaVuSans-44" d="M 2194 1759 
Q 1497 1759 1228 1600 
Q 959 1441 959 1056 
Q 959 750 1161 570 
Q 1363 391 1709 391 
Q 2188 391 2477 730 
Q 2766 1069 2766 1631 
L 2766 1759 
L 2194 1759 
z
M 3341 1997 
L 3341 0 
L 2766 0 
L 2766 531 
Q 2569 213 2275 61 
Q 1981 -91 1556 -91 
Q 1019 -91 701 211 
Q 384 513 384 1019 
Q 384 1609 779 1909 
Q 1175 2209 1959 2209 
L 2766 2209 
L 2766 2266 
Q 2766 2663 2505 2880 
Q 2244 3097 1772 3097 
Q 1472 3097 1187 3025 
Q 903 2953 641 2809 
L 641 3341 
Q 956 3463 1253 3523 
Q 1550 3584 1831 3584 
Q 2591 3584 2966 3190 
Q 3341 2797 3341 1997 
z
" transform="scale(0.015625)"/>
      <path id="DejaVuSans-46" d="M 3122 3366 
L 3122 2828 
Q 2878 2963 2633 3030 
Q 2388 3097 2138 3097 
Q 1578 3097 1268 2742 
Q 959 2388 959 1747 
Q 959 1106 1268 751 
Q 1578 397 2138 397 
Q 2388 397 2633 464 
Q 2878 531 3122 666 
L 3122 134 
Q 2881 22 2623 -34 
Q 2366 -91 2075 -91 
Q 1284 -91 818 406 
Q 353 903 353 1747 
Q 353 2603 823 3093 
Q 1294 3584 2113 3584 
Q 2378 3584 2631 3529 
Q 2884 3475 3122 3366 
z
" transform="scale(0.015625)"/>
      <path id="DejaVuSans-4e" d="M 581 4863 
L 1159 4863 
L 1159 1991 
L 2875 3500 
L 3609 3500 
L 1753 1863 
L 3688 0 
L 2938 0 
L 1159 1709 
L 1159 0 
L 581 0 
L 581 4863 
z
" transform="scale(0.015625)"/>
      <path id="DejaVuSans-48" d="M 3597 1894 
L 3597 1613 
L 953 1613 
Q 991 1019 1311 708 
Q 1631 397 2203 397 
Q 2534 397 2845 478 
Q 3156 559 3463 722 
L 3463 178 
Q 3153 47 2828 -22 
Q 2503 -91 2169 -91 
Q 1331 -91 842 396 
Q 353 884 353 1716 
Q 353 2575 817 3079 
Q 1281 3584 2069 3584 
Q 2775 3584 3186 3129 
Q 3597 2675 3597 1894 
z
M 3022 2063 
Q 3016 2534 2758 2815 
Q 2500 3097 2075 3097 
Q 1594 3097 1305 2825 
Q 1016 2553 972 2059 
L 3022 2063 
z
" transform="scale(0.015625)"/>
      <path id="DejaVuSans-55" d="M 2631 2963 
Q 2534 3019 2420 3045 
Q 2306 3072 2169 3072 
Q 1681 3072 1420 2755 
Q 1159 2438 1159 1844 
L 1159 0 
L 581 0 
L 581 3500 
L 1159 3500 
L 1159 2956 
Q 1341 3275 1631 3429 
Q 1922 3584 2338 3584 
Q 2397 3584 2469 3576 
Q 2541 3569 2628 3553 
L 2631 2963 
z
" transform="scale(0.015625)"/>
      <path id="DejaVuSans-32" d="M 2522 4238 
Q 1834 4238 1429 3725 
Q 1025 3213 1025 2328 
Q 1025 1447 1429 934 
Q 1834 422 2522 422 
Q 3209 422 3611 934 
Q 4013 1447 4013 2328 
Q 4013 3213 3611 3725 
Q 3209 4238 2522 4238 
z
M 2522 4750 
Q 3503 4750 4090 4092 
Q 4678 3434 4678 2328 
Q 4678 1225 4090 567 
Q 3503 -91 2522 -91 
Q 1538 -91 948 565 
Q 359 1222 359 2328 
Q 359 3434 948 4092 
Q 1538 4750 2522 4750 
z
" transform="scale(0.015625)"/>
      <path id="DejaVuSans-53" d="M 1159 525 
L 1159 -1331 
L 581 -1331 
L 581 3500 
L 1159 3500 
L 1159 2969 
Q 1341 3281 1617 3432 
Q 1894 3584 2278 3584 
Q 2916 3584 3314 3078 
Q 3713 2572 3713 1747 
Q 3713 922 3314 415 
Q 2916 -91 2278 -91 
Q 1894 -91 1617 61 
Q 1341 213 1159 525 
z
M 3116 1747 
Q 3116 2381 2855 2742 
Q 2594 3103 2138 3103 
Q 1681 3103 1420 2742 
Q 1159 2381 1159 1747 
Q 1159 1113 1420 752 
Q 1681 391 2138 391 
Q 2594 391 2855 752 
Q 3116 1113 3116 1747 
z
" transform="scale(0.015625)"/>
      <path id="DejaVuSans-4c" d="M 603 3500 
L 1178 3500 
L 1178 0 
L 603 0 
L 603 3500 
z
M 603 4863 
L 1178 4863 
L 1178 4134 
L 603 4134 
L 603 4863 
z
" transform="scale(0.015625)"/>
      <path id="DejaVuSans-4f" d="M 603 4863 
L 1178 4863 
L 1178 0 
L 603 0 
L 603 4863 
z
" transform="scale(0.015625)"/>
      <path id="DejaVuSans-36" d="M 3425 4513 
L 3425 3897 
Q 3066 4069 2747 4153 
Q 2428 4238 2131 4238 
Q 1616 4238 1336 4038 
Q 1056 3838 1056 3469 
Q 1056 3159 1242 3001 
Q 1428 2844 1947 2747 
L 2328 2669 
Q 3034 2534 3370 2195 
Q 3706 1856 3706 1288 
Q 3706 609 3251 259 
Q 2797 -91 1919 -91 
Q 1588 -91 1214 -16 
Q 841 59 441 206 
L 441 856 
Q 825 641 1194 531 
Q 1563 422 1919 422 
Q 2459 422 2753 634 
Q 3047 847 3047 1241 
Q 3047 1584 2836 1778 
Q 2625 1972 2144 2069 
L 1759 2144 
Q 1053 2284 737 2584 
Q 422 2884 422 3419 
Q 422 4038 858 4394 
Q 1294 4750 2059 4750 
Q 2388 4750 2728 4690 
Q 3069 4631 3425 4513 
z
" transform="scale(0.015625)"/>
      <path id="DejaVuSans-4a" d="M 2906 1791 
Q 2906 2416 2648 2759 
Q 2391 3103 1925 3103 
Q 1463 3103 1205 2759 
Q 947 2416 947 1791 
Q 947 1169 1205 825 
Q 1463 481 1925 481 
Q 2391 481 2648 825 
Q 2906 1169 2906 1791 
z
M 3481 434 
Q 3481 -459 3084 -895 
Q 2688 -1331 1869 -1331 
Q 1566 -1331 1297 -1286 
Q 1028 -1241 775 -1147 
L 775 -588 
Q 1028 -725 1275 -790 
Q 1522 -856 1778 -856 
Q 2344 -856 2625 -561 
Q 2906 -266 2906 331 
L 2906 616 
Q 2728 306 2450 153 
Q 2172 0 1784 0 
Q 1141 0 747 490 
Q 353 981 353 1791 
Q 353 2603 747 3093 
Q 1141 3584 1784 3584 
Q 2172 3584 2450 3431 
Q 2728 3278 2906 2969 
L 2906 3500 
L 3481 3500 
L 3481 434 
z
" transform="scale(0.015625)"/>
      <path id="DejaVuSans-5c" d="M 2059 -325 
Q 1816 -950 1584 -1140 
Q 1353 -1331 966 -1331 
L 506 -1331 
L 506 -850 
L 844 -850 
Q 1081 -850 1212 -737 
Q 1344 -625 1503 -206 
L 1606 56 
L 191 3500 
L 800 3500 
L 1894 763 
L 2988 3500 
L 3597 3500 
L 2059 -325 
z
" transform="scale(0.015625)"/>
      <path id="DejaVuSans-1d" d="M 750 794 
L 1409 794 
L 1409 0 
L 750 0 
L 750 794 
z
M 750 3309 
L 1409 3309 
L 1409 2516 
L 750 2516 
L 750 3309 
z
" transform="scale(0.015625)"/>
      <path id="DejaVuSans-2b" d="M 628 4666 
L 1259 4666 
L 1259 2753 
L 3553 2753 
L 3553 4666 
L 4184 4666 
L 4184 0 
L 3553 0 
L 3553 2222 
L 1259 2222 
L 1259 0 
L 628 0 
L 628 4666 
z
" transform="scale(0.015625)"/>
      <path id="DejaVuSans-56" d="M 2834 3397 
L 2834 2853 
Q 2591 2978 2328 3040 
Q 2066 3103 1784 3103 
Q 1356 3103 1142 2972 
Q 928 2841 928 2578 
Q 928 2378 1081 2264 
Q 1234 2150 1697 2047 
L 1894 2003 
Q 2506 1872 2764 1633 
Q 3022 1394 3022 966 
Q 3022 478 2636 193 
Q 2250 -91 1575 -91 
Q 1294 -91 989 -36 
Q 684 19 347 128 
L 347 722 
Q 666 556 975 473 
Q 1284 391 1588 391 
Q 1994 391 2212 530 
Q 2431 669 2431 922 
Q 2431 1156 2273 1281 
Q 2116 1406 1581 1522 
L 1381 1569 
Q 847 1681 609 1914 
Q 372 2147 372 2553 
Q 372 3047 722 3315 
Q 1072 3584 1716 3584 
Q 2034 3584 2315 3537 
Q 2597 3491 2834 3397 
z
" transform="scale(0.015625)"/>
      <path id="DejaVuSans-52" d="M 1959 3097 
Q 1497 3097 1228 2736 
Q 959 2375 959 1747 
Q 959 1119 1226 758 
Q 1494 397 1959 397 
Q 2419 397 2687 759 
Q 2956 1122 2956 1747 
Q 2956 2369 2687 2733 
Q 2419 3097 1959 3097 
z
M 1959 3584 
Q 2709 3584 3137 3096 
Q 3566 2609 3566 1747 
Q 3566 888 3137 398 
Q 2709 -91 1959 -91 
Q 1206 -91 779 398 
Q 353 888 353 1747 
Q 353 2609 779 3096 
Q 1206 3584 1959 3584 
z
" transform="scale(0.015625)"/>
     </defs>
     <use xlink:href="#DejaVuSans-24"/>
     <use xlink:href="#DejaVuSans-57" transform="translate(66.65625 0)"/>
     <use xlink:href="#DejaVuSans-57" transform="translate(105.859375 0)"/>
     <use xlink:href="#DejaVuSans-44" transform="translate(145.0625 0)"/>
     <use xlink:href="#DejaVuSans-46" transform="translate(206.34375 0)"/>
     <use xlink:href="#DejaVuSans-4e" transform="translate(261.328125 0)"/>
     <use xlink:href="#DejaVuSans-48" transform="translate(315.671875 0)"/>
     <use xlink:href="#DejaVuSans-55" transform="translate(377.203125 0)"/>
     <use xlink:href="#DejaVuSans-3" transform="translate(418.3125 0)"/>
     <use xlink:href="#DejaVuSans-32" transform="translate(450.09375 0)"/>
     <use xlink:href="#DejaVuSans-53" transform="translate(528.8125 0)"/>
     <use xlink:href="#DejaVuSans-57" transform="translate(592.296875 0)"/>
     <use xlink:href="#DejaVuSans-4c" transform="translate(631.5 0)"/>
     <use xlink:href="#DejaVuSans-50" transform="translate(659.28125 0)"/>
     <use xlink:href="#DejaVuSans-44" transform="translate(756.6875 0)"/>
     <use xlink:href="#DejaVuSans-4f" transform="translate(817.96875 0)"/>
     <use xlink:href="#DejaVuSans-3" transform="translate(845.75 0)"/>
     <use xlink:href="#DejaVuSans-36" transform="translate(877.53125 0)"/>
     <use xlink:href="#DejaVuSans-57" transform="translate(941.015625 0)"/>
     <use xlink:href="#DejaVuSans-55" transform="translate(980.21875 0)"/>
     <use xlink:href="#DejaVuSans-44" transform="translate(1021.328125 0)"/>
     <use xlink:href="#DejaVuSans-57" transform="translate(1082.609375 0)"/>
     <use xlink:href="#DejaVuSans-48" transform="translate(1121.8125 0)"/>
     <use xlink:href="#DejaVuSans-4a" transform="translate(1183.34375 0)"/>
     <use xlink:href="#DejaVuSans-5c" transform="translate(1246.828125 0)"/>
     <use xlink:href="#DejaVuSans-1d" transform="translate(1298.734375 0)"/>
     <use xlink:href="#DejaVuSans-3" transform="translate(1332.421875 0)"/>
     <use xlink:href="#DejaVuSans-36" transform="translate(1364.203125 0)"/>
     <use xlink:href="#DejaVuSans-57" transform="translate(1427.6875 0)"/>
     <use xlink:href="#DejaVuSans-44" transform="translate(1466.890625 0)"/>
     <use xlink:href="#DejaVuSans-57" transform="translate(1528.171875 0)"/>
     <use xlink:href="#DejaVuSans-48" transform="translate(1567.375 0)"/>
     <use xlink:href="#DejaVuSans-3" transform="translate(1628.90625 0)"/>
     <use xlink:href="#DejaVuSans-2b" transform="translate(1660.6875 0)"/>
     <use xlink:href="#DejaVuSans-4c" transform="translate(1735.890625 0)"/>
     <use xlink:href="#DejaVuSans-56" transform="translate(1763.671875 0)"/>
     <use xlink:href="#DejaVuSans-57" transform="translate(1815.765625 0)"/>
     <use xlink:href="#DejaVuSans-52" transform="translate(1854.96875 0)"/>
     <use xlink:href="#DejaVuSans-55" transform="translate(1916.15625 0)"/>
     <use xlink:href="#DejaVuSans-5c" transform="translate(1957.265625 0)"/>
    </g>
   </g>
  </g>
  <g id="axes_2">
   <g id="patch_7">
    <path d="M 57.195859 277.622665 
L 711.479533 277.622665 
L 711.479533 155.176541 
L 57.195859 155.176541 
z
" style="fill: #ffffff"/>
   </g>
   <g id="matplotlib.axis_3">
    <g id="xtick_8">
     <g id="line2d_23">
      <path d="M 86.936026 277.622665 
L 86.936026 155.176541 
" clip-path="url(#pa28528db1b)" style="fill: none; stroke: #b0b0b0; stroke-opacity: 0.25; stroke-width: 0.4; stroke-linecap: square"/>
     </g>
     <g id="line2d_24">
      <g>
       <use xlink:href="#m33c3eb7186" x="86.936026" y="277.622665" style="stroke: #000000; stroke-width: 0.8"/>
      </g>
     </g>
    </g>
    <g id="xtick_9">
     <g id="line2d_25">
      <path d="M 190.896921 277.622665 
L 190.896921 155.176541 
" clip-path="url(#pa28528db1b)" style="fill: none; stroke: #b0b0b0; stroke-opacity: 0.25; stroke-width: 0.4; stroke-linecap: square"/>
     </g>
     <g id="line2d_26">
      <g>
       <use xlink:href="#m33c3eb7186" x="190.896921" y="277.622665" style="stroke: #000000; stroke-width: 0.8"/>
      </g>
     </g>
    </g>
    <g id="xtick_10">
     <g id="line2d_27">
      <path d="M 294.857816 277.622665 
L 294.857816 155.176541 
" clip-path="url(#pa28528db1b)" style="fill: none; stroke: #b0b0b0; stroke-opacity: 0.25; stroke-width: 0.4; stroke-linecap: square"/>
     </g>
     <g id="line2d_28">
      <g>
       <use xlink:href="#m33c3eb7186" x="294.857816" y="277.622665" style="stroke: #000000; stroke-width: 0.8"/>
      </g>
     </g>
    </g>
    <g id="xtick_11">
     <g id="line2d_29">
      <path d="M 398.818711 277.622665 
L 398.818711 155.176541 
" clip-path="url(#pa28528db1b)" style="fill: none; stroke: #b0b0b0; stroke-opacity: 0.25; stroke-width: 0.4; stroke-linecap: square"/>
     </g>
     <g id="line2d_30">
      <g>
       <use xlink:href="#m33c3eb7186" x="398.818711" y="277.622665" style="stroke: #000000; stroke-width: 0.8"/>
      </g>
     </g>
    </g>
    <g id="xtick_12">
     <g id="line2d_31">
      <path d="M 502.779605 277.622665 
L 502.779605 155.176541 
" clip-path="url(#pa28528db1b)" style="fill: none; stroke: #b0b0b0; stroke-opacity: 0.25; stroke-width: 0.4; stroke-linecap: square"/>
     </g>
     <g id="line2d_32">
      <g>
       <use xlink:href="#m33c3eb7186" x="502.779605" y="277.622665" style="stroke: #000000; stroke-width: 0.8"/>
      </g>
     </g>
    </g>
    <g id="xtick_13">
     <g id="line2d_33">
      <path d="M 606.7405 277.622665 
L 606.7405 155.176541 
" clip-path="url(#pa28528db1b)" style="fill: none; stroke: #b0b0b0; stroke-opacity: 0.25; stroke-width: 0.4; stroke-linecap: square"/>
     </g>
     <g id="line2d_34">
      <g>
       <use xlink:href="#m33c3eb7186" x="606.7405" y="277.622665" style="stroke: #000000; stroke-width: 0.8"/>
      </g>
     </g>
    </g>
    <g id="xtick_14">
     <g id="line2d_35">
      <path d="M 710.701395 277.622665 
L 710.701395 155.176541 
" clip-path="url(#pa28528db1b)" style="fill: none; stroke: #b0b0b0; stroke-opacity: 0.25; stroke-width: 0.4; stroke-linecap: square"/>
     </g>
     <g id="line2d_36">
      <g>
       <use xlink:href="#m33c3eb7186" x="710.701395" y="277.622665" style="stroke: #000000; stroke-width: 0.8"/>
      </g>
     </g>
    </g>
   </g>
   <g id="matplotlib.axis_4">
    <g id="ytick_4">
     <g id="line2d_37">
      <path d="M 57.195859 272.056932 
L 711.479533 272.056932 
" clip-path="url(#pa28528db1b)" style="fill: none; stroke: #b0b0b0; stroke-opacity: 0.25; stroke-width: 0.4; stroke-linecap: square"/>
     </g>
     <g id="line2d_38">
      <g>
       <use xlink:href="#m74880802d7" x="57.195859" y="272.056932" style="stroke: #000000; stroke-width: 0.8"/>
      </g>
     </g>
     <g id="text_6">
      <!-- 0 -->
      <g transform="translate(43.197109 276.235643) scale(0.11 -0.11)">
       <use xlink:href="#DejaVuSans-13"/>
      </g>
     </g>
    </g>
    <g id="ytick_5">
     <g id="line2d_39">
      <path d="M 57.195859 244.121931 
L 711.479533 244.121931 
" clip-path="url(#pa28528db1b)" style="fill: none; stroke: #b0b0b0; stroke-opacity: 0.25; stroke-width: 0.4; stroke-linecap: square"/>
     </g>
     <g id="line2d_40">
      <g>
       <use xlink:href="#m74880802d7" x="57.195859" y="244.121931" style="stroke: #000000; stroke-width: 0.8"/>
      </g>
     </g>
     <g id="text_7">
      <!-- 50 -->
      <g transform="translate(36.198359 248.300642) scale(0.11 -0.11)">
       <defs>
        <path id="DejaVuSans-18" d="M 691 4666 
L 3169 4666 
L 3169 4134 
L 1269 4134 
L 1269 2991 
Q 1406 3038 1543 3061 
Q 1681 3084 1819 3084 
Q 2600 3084 3056 2656 
Q 3513 2228 3513 1497 
Q 3513 744 3044 326 
Q 2575 -91 1722 -91 
Q 1428 -91 1123 -41 
Q 819 9 494 109 
L 494 744 
Q 775 591 1075 516 
Q 1375 441 1709 441 
Q 2250 441 2565 725 
Q 2881 1009 2881 1497 
Q 2881 1984 2565 2268 
Q 2250 2553 1709 2553 
Q 1456 2553 1204 2497 
Q 953 2441 691 2322 
L 691 4666 
z
" transform="scale(0.015625)"/>
       </defs>
       <use xlink:href="#DejaVuSans-18"/>
       <use xlink:href="#DejaVuSans-13" transform="translate(63.625 0)"/>
      </g>
     </g>
    </g>
    <g id="ytick_6">
     <g id="line2d_41">
      <path d="M 57.195859 216.18693 
L 711.479533 216.18693 
" clip-path="url(#pa28528db1b)" style="fill: none; stroke: #b0b0b0; stroke-opacity: 0.25; stroke-width: 0.4; stroke-linecap: square"/>
     </g>
     <g id="line2d_42">
      <g>
       <use xlink:href="#m74880802d7" x="57.195859" y="216.18693" style="stroke: #000000; stroke-width: 0.8"/>
      </g>
     </g>
     <g id="text_8">
      <!-- 100 -->
      <g transform="translate(29.199609 220.365641) scale(0.11 -0.11)">
       <use xlink:href="#DejaVuSans-14"/>
       <use xlink:href="#DejaVuSans-13" transform="translate(63.625 0)"/>
       <use xlink:href="#DejaVuSans-13" transform="translate(127.25 0)"/>
      </g>
     </g>
    </g>
    <g id="ytick_7">
     <g id="line2d_43">
      <path d="M 57.195859 188.251928 
L 711.479533 188.251928 
" clip-path="url(#pa28528db1b)" style="fill: none; stroke: #b0b0b0; stroke-opacity: 0.25; stroke-width: 0.4; stroke-linecap: square"/>
     </g>
     <g id="line2d_44">
      <g>
       <use xlink:href="#m74880802d7" x="57.195859" y="188.251928" style="stroke: #000000; stroke-width: 0.8"/>
      </g>
     </g>
     <g id="text_9">
      <!-- 150 -->
      <g transform="translate(29.199609 192.430639) scale(0.11 -0.11)">
       <use xlink:href="#DejaVuSans-14"/>
       <use xlink:href="#DejaVuSans-18" transform="translate(63.625 0)"/>
       <use xlink:href="#DejaVuSans-13" transform="translate(127.25 0)"/>
      </g>
     </g>
    </g>
    <g id="ytick_8">
     <g id="line2d_45">
      <path d="M 57.195859 160.316927 
L 711.479533 160.316927 
" clip-path="url(#pa28528db1b)" style="fill: none; stroke: #b0b0b0; stroke-opacity: 0.25; stroke-width: 0.4; stroke-linecap: square"/>
     </g>
     <g id="line2d_46">
      <g>
       <use xlink:href="#m74880802d7" x="57.195859" y="160.316927" style="stroke: #000000; stroke-width: 0.8"/>
      </g>
     </g>
     <g id="text_10">
      <!-- 200 -->
      <g transform="translate(29.199609 164.495638) scale(0.11 -0.11)">
       <use xlink:href="#DejaVuSans-15"/>
       <use xlink:href="#DejaVuSans-13" transform="translate(63.625 0)"/>
       <use xlink:href="#DejaVuSans-13" transform="translate(127.25 0)"/>
      </g>
     </g>
    </g>
    <g id="text_11">
     <!-- h [m] -->
     <g transform="translate(22.557031 231.28226) rotate(-90) scale(0.11 -0.11)">
      <defs>
       <path id="DejaVuSans-4b" d="M 3513 2113 
L 3513 0 
L 2938 0 
L 2938 2094 
Q 2938 2591 2744 2837 
Q 2550 3084 2163 3084 
Q 1697 3084 1428 2787 
Q 1159 2491 1159 1978 
L 1159 0 
L 581 0 
L 581 4863 
L 1159 4863 
L 1159 2956 
Q 1366 3272 1645 3428 
Q 1925 3584 2291 3584 
Q 2894 3584 3203 3211 
Q 3513 2838 3513 2113 
z
" transform="scale(0.015625)"/>
      </defs>
      <use xlink:href="#DejaVuSans-4b"/>
      <use xlink:href="#DejaVuSans-3" transform="translate(63.375 0)"/>
      <use xlink:href="#DejaVuSans-3e" transform="translate(95.15625 0)"/>
      <use xlink:href="#DejaVuSans-50" transform="translate(134.171875 0)"/>
      <use xlink:href="#DejaVuSans-40" transform="translate(231.578125 0)"/>
     </g>
    </g>
   </g>
   <g id="line2d_47">
    <path d="M 86.936026 272.056932 
L 104.287725 258.1426 
L 121.639423 244.228268 
L 138.991121 230.313936 
L 156.34282 216.399603 
L 173.694518 202.485271 
L 191.046216 188.570939 
L 208.397915 174.656606 
L 225.749613 160.742274 
L 227.726955 160.875627 
L 233.661152 161.434327 
L 239.59535 161.993027 
L 245.529547 162.551727 
L 251.463745 163.110427 
L 257.397942 163.669127 
L 263.33214 164.227827 
L 269.266337 164.786527 
L 275.200535 165.345227 
L 281.134732 165.903927 
L 287.06893 166.462627 
L 293.003127 167.021327 
L 298.937325 167.580027 
L 304.871522 168.138727 
L 310.80572 168.697427 
L 316.739917 169.256128 
L 322.674115 169.814828 
L 328.608312 170.373528 
L 334.54251 170.932228 
L 340.476707 171.490928 
L 346.410905 172.049628 
L 352.345102 172.608328 
L 358.2793 173.167028 
L 364.213497 173.725728 
L 370.147695 174.284428 
L 376.081893 174.843128 
L 382.01609 175.401828 
L 387.950288 175.960528 
L 393.884485 176.519228 
L 399.818683 177.077928 
L 405.75288 177.636628 
L 411.687078 178.195328 
L 417.621275 178.754028 
L 423.555473 179.312728 
L 429.48967 179.871428 
L 435.423868 180.430128 
L 441.358065 180.988828 
L 447.292263 181.547528 
L 453.22646 182.106228 
L 459.160658 182.664928 
L 465.094855 183.223628 
L 469.054699 183.782328 
L 471.044616 184.341028 
L 475.057542 186.017128 
L 479.116345 188.251928 
L 483.233381 191.045429 
L 489.442041 195.515029 
L 493.629152 198.867229 
L 497.816263 202.219429 
L 502.003374 205.571629 
L 506.190485 208.923829 
L 512.399145 213.39343 
L 518.543569 217.30433 
L 520.57297 218.42173 
L 522.602372 219.53913 
L 524.631773 220.65653 
L 526.661175 221.77393 
L 532.7014 224.56743 
L 536.714326 226.24353 
L 540.727252 227.91963 
L 546.727936 230.15443 
L 552.728621 232.38923 
L 558.729305 234.624031 
L 564.72999 236.858831 
L 570.730674 239.093631 
L 576.731358 241.328431 
L 582.732043 243.563231 
L 584.721959 244.121931 
L 586.711876 244.680631 
L 588.701792 245.239331 
L 590.691709 245.798031 
L 592.681625 246.356731 
L 594.671542 246.915431 
L 596.661458 247.474131 
L 598.651374 248.032831 
L 600.641291 248.591531 
L 602.631207 249.150231 
L 604.621124 249.708931 
L 606.61104 250.267631 
L 608.600957 250.826331 
L 610.590873 251.385031 
L 612.58079 251.943731 
L 614.570706 252.502431 
L 616.560623 253.061131 
L 618.550539 253.619831 
L 620.540455 254.178531 
L 622.530372 254.737231 
L 624.520288 255.295931 
L 626.510205 255.854632 
L 628.500121 256.413332 
L 630.490038 256.972032 
L 632.479954 257.530732 
L 634.469871 258.089432 
L 636.459787 258.648132 
L 638.449703 259.206832 
L 640.43962 259.765532 
L 642.429536 260.324232 
L 644.419453 260.882932 
L 646.409369 261.441632 
L 648.399286 262.000332 
L 650.389202 262.559032 
L 652.379119 263.117732 
L 654.369035 263.676432 
L 656.358952 264.235132 
L 658.348868 264.793832 
L 660.338784 265.352532 
L 662.328701 265.911232 
L 664.318617 266.469932 
L 666.308534 267.028632 
L 668.29845 267.587332 
L 670.288367 268.146032 
L 672.278283 268.704732 
L 674.2682 269.263432 
L 676.258116 269.822132 
L 678.248032 270.380832 
L 680.237949 270.939532 
L 681.739366 271.361078 
" clip-path="url(#pa28528db1b)" style="fill: none; stroke: #9467bd; stroke-width: 2.2; stroke-linecap: square"/>
   </g>
   <g id="line2d_48">
    <path d="M 225.749613 277.622665 
L 225.749613 155.176541 
" clip-path="url(#pa28528db1b)" style="fill: none; stroke-dasharray: 4.44,1.92; stroke-dashoffset: 0; stroke: #696969; stroke-width: 1.2"/>
   </g>
   <g id="patch_8">
    <path d="M 57.195859 277.622665 
L 57.195859 155.176541 
" style="fill: none; stroke: #000000; stroke-width: 0.8; stroke-linejoin: miter; stroke-linecap: square"/>
   </g>
   <g id="patch_9">
    <path d="M 711.479533 277.622665 
L 711.479533 155.176541 
" style="fill: none; stroke: #000000; stroke-width: 0.8; stroke-linejoin: miter; stroke-linecap: square"/>
   </g>
   <g id="patch_10">
    <path d="M 57.195859 277.622665 
L 711.479533 277.622665 
" style="fill: none; stroke: #000000; stroke-width: 0.8; stroke-linejoin: miter; stroke-linecap: square"/>
   </g>
   <g id="patch_11">
    <path d="M 57.195859 155.176541 
L 711.479533 155.176541 
" style="fill: none; stroke: #000000; stroke-width: 0.8; stroke-linejoin: miter; stroke-linecap: square"/>
   </g>
  </g>
  <g id="axes_3">
   <g id="patch_12">
    <path d="M 57.195859 409.569269 
L 711.479533 409.569269 
L 711.479533 287.123145 
L 57.195859 287.123145 
z
" style="fill: #ffffff"/>
   </g>
   <g id="matplotlib.axis_5">
    <g id="xtick_15">
     <g id="line2d_49">
      <path d="M 86.936026 409.569269 
L 86.936026 287.123145 
" clip-path="url(#pd65ea985ff)" style="fill: none; stroke: #b0b0b0; stroke-opacity: 0.25; stroke-width: 0.4; stroke-linecap: square"/>
     </g>
     <g id="line2d_50">
      <g>
       <use xlink:href="#m33c3eb7186" x="86.936026" y="409.569269" style="stroke: #000000; stroke-width: 0.8"/>
      </g>
     </g>
    </g>
    <g id="xtick_16">
     <g id="line2d_51">
      <path d="M 190.896921 409.569269 
L 190.896921 287.123145 
" clip-path="url(#pd65ea985ff)" style="fill: none; stroke: #b0b0b0; stroke-opacity: 0.25; stroke-width: 0.4; stroke-linecap: square"/>
     </g>
     <g id="line2d_52">
      <g>
       <use xlink:href="#m33c3eb7186" x="190.896921" y="409.569269" style="stroke: #000000; stroke-width: 0.8"/>
      </g>
     </g>
    </g>
    <g id="xtick_17">
     <g id="line2d_53">
      <path d="M 294.857816 409.569269 
L 294.857816 287.123145 
" clip-path="url(#pd65ea985ff)" style="fill: none; stroke: #b0b0b0; stroke-opacity: 0.25; stroke-width: 0.4; stroke-linecap: square"/>
     </g>
     <g id="line2d_54">
      <g>
       <use xlink:href="#m33c3eb7186" x="294.857816" y="409.569269" style="stroke: #000000; stroke-width: 0.8"/>
      </g>
     </g>
    </g>
    <g id="xtick_18">
     <g id="line2d_55">
      <path d="M 398.818711 409.569269 
L 398.818711 287.123145 
" clip-path="url(#pd65ea985ff)" style="fill: none; stroke: #b0b0b0; stroke-opacity: 0.25; stroke-width: 0.4; stroke-linecap: square"/>
     </g>
     <g id="line2d_56">
      <g>
       <use xlink:href="#m33c3eb7186" x="398.818711" y="409.569269" style="stroke: #000000; stroke-width: 0.8"/>
      </g>
     </g>
    </g>
    <g id="xtick_19">
     <g id="line2d_57">
      <path d="M 502.779605 409.569269 
L 502.779605 287.123145 
" clip-path="url(#pd65ea985ff)" style="fill: none; stroke: #b0b0b0; stroke-opacity: 0.25; stroke-width: 0.4; stroke-linecap: square"/>
     </g>
     <g id="line2d_58">
      <g>
       <use xlink:href="#m33c3eb7186" x="502.779605" y="409.569269" style="stroke: #000000; stroke-width: 0.8"/>
      </g>
     </g>
    </g>
    <g id="xtick_20">
     <g id="line2d_59">
      <path d="M 606.7405 409.569269 
L 606.7405 287.123145 
" clip-path="url(#pd65ea985ff)" style="fill: none; stroke: #b0b0b0; stroke-opacity: 0.25; stroke-width: 0.4; stroke-linecap: square"/>
     </g>
     <g id="line2d_60">
      <g>
       <use xlink:href="#m33c3eb7186" x="606.7405" y="409.569269" style="stroke: #000000; stroke-width: 0.8"/>
      </g>
     </g>
    </g>
    <g id="xtick_21">
     <g id="line2d_61">
      <path d="M 710.701395 409.569269 
L 710.701395 287.123145 
" clip-path="url(#pd65ea985ff)" style="fill: none; stroke: #b0b0b0; stroke-opacity: 0.25; stroke-width: 0.4; stroke-linecap: square"/>
     </g>
     <g id="line2d_62">
      <g>
       <use xlink:href="#m33c3eb7186" x="710.701395" y="409.569269" style="stroke: #000000; stroke-width: 0.8"/>
      </g>
     </g>
    </g>
   </g>
   <g id="matplotlib.axis_6">
    <g id="ytick_9">
     <g id="line2d_63">
      <path d="M 57.195859 404.003536 
L 711.479533 404.003536 
" clip-path="url(#pd65ea985ff)" style="fill: none; stroke: #b0b0b0; stroke-opacity: 0.25; stroke-width: 0.4; stroke-linecap: square"/>
     </g>
     <g id="line2d_64">
      <g>
       <use xlink:href="#m74880802d7" x="57.195859" y="404.003536" style="stroke: #000000; stroke-width: 0.8"/>
      </g>
     </g>
     <g id="text_12">
      <!-- 21.0 -->
      <g transform="translate(25.703672 408.182247) scale(0.11 -0.11)">
       <defs>
        <path id="DejaVuSans-11" d="M 684 794 
L 1344 794 
L 1344 0 
L 684 0 
L 684 794 
z
" transform="scale(0.015625)"/>
       </defs>
       <use xlink:href="#DejaVuSans-15"/>
       <use xlink:href="#DejaVuSans-14" transform="translate(63.625 0)"/>
       <use xlink:href="#DejaVuSans-11" transform="translate(127.25 0)"/>
       <use xlink:href="#DejaVuSans-13" transform="translate(159.03125 0)"/>
      </g>
     </g>
    </g>
    <g id="ytick_10">
     <g id="line2d_65">
      <path d="M 57.195859 369.217705 
L 711.479533 369.217705 
" clip-path="url(#pd65ea985ff)" style="fill: none; stroke: #b0b0b0; stroke-opacity: 0.25; stroke-width: 0.4; stroke-linecap: square"/>
     </g>
     <g id="line2d_66">
      <g>
       <use xlink:href="#m74880802d7" x="57.195859" y="369.217705" style="stroke: #000000; stroke-width: 0.8"/>
      </g>
     </g>
     <g id="text_13">
      <!-- 21.5 -->
      <g transform="translate(25.703672 373.396416) scale(0.11 -0.11)">
       <use xlink:href="#DejaVuSans-15"/>
       <use xlink:href="#DejaVuSans-14" transform="translate(63.625 0)"/>
       <use xlink:href="#DejaVuSans-11" transform="translate(127.25 0)"/>
       <use xlink:href="#DejaVuSans-18" transform="translate(159.03125 0)"/>
      </g>
     </g>
    </g>
    <g id="ytick_11">
     <g id="line2d_67">
      <path d="M 57.195859 334.431875 
L 711.479533 334.431875 
" clip-path="url(#pd65ea985ff)" style="fill: none; stroke: #b0b0b0; stroke-opacity: 0.25; stroke-width: 0.4; stroke-linecap: square"/>
     </g>
     <g id="line2d_68">
      <g>
       <use xlink:href="#m74880802d7" x="57.195859" y="334.431875" style="stroke: #000000; stroke-width: 0.8"/>
      </g>
     </g>
     <g id="text_14">
      <!-- 22.0 -->
      <g transform="translate(25.703672 338.610586) scale(0.11 -0.11)">
       <use xlink:href="#DejaVuSans-15"/>
       <use xlink:href="#DejaVuSans-15" transform="translate(63.625 0)"/>
       <use xlink:href="#DejaVuSans-11" transform="translate(127.25 0)"/>
       <use xlink:href="#DejaVuSans-13" transform="translate(159.03125 0)"/>
      </g>
     </g>
    </g>
    <g id="ytick_12">
     <g id="line2d_69">
      <path d="M 57.195859 299.646044 
L 711.479533 299.646044 
" clip-path="url(#pd65ea985ff)" style="fill: none; stroke: #b0b0b0; stroke-opacity: 0.25; stroke-width: 0.4; stroke-linecap: square"/>
     </g>
     <g id="line2d_70">
      <g>
       <use xlink:href="#m74880802d7" x="57.195859" y="299.646044" style="stroke: #000000; stroke-width: 0.8"/>
      </g>
     </g>
     <g id="text_15">
      <!-- 22.5 -->
      <g transform="translate(25.703672 303.824755) scale(0.11 -0.11)">
       <use xlink:href="#DejaVuSans-15"/>
       <use xlink:href="#DejaVuSans-15" transform="translate(63.625 0)"/>
       <use xlink:href="#DejaVuSans-11" transform="translate(127.25 0)"/>
       <use xlink:href="#DejaVuSans-18" transform="translate(159.03125 0)"/>
      </g>
     </g>
    </g>
    <g id="text_16">
     <!-- v [m/s] -->
     <g transform="translate(19.061094 367.71652) rotate(-90) scale(0.11 -0.11)">
      <defs>
       <path id="DejaVuSans-59" d="M 191 3500 
L 800 3500 
L 1894 563 
L 2988 3500 
L 3597 3500 
L 2284 0 
L 1503 0 
L 191 3500 
z
" transform="scale(0.015625)"/>
       <path id="DejaVuSans-12" d="M 1625 4666 
L 2156 4666 
L 531 -594 
L 0 -594 
L 1625 4666 
z
" transform="scale(0.015625)"/>
      </defs>
      <use xlink:href="#DejaVuSans-59"/>
      <use xlink:href="#DejaVuSans-3" transform="translate(59.1875 0)"/>
      <use xlink:href="#DejaVuSans-3e" transform="translate(90.96875 0)"/>
      <use xlink:href="#DejaVuSans-50" transform="translate(129.984375 0)"/>
      <use xlink:href="#DejaVuSans-12" transform="translate(227.390625 0)"/>
      <use xlink:href="#DejaVuSans-56" transform="translate(261.078125 0)"/>
      <use xlink:href="#DejaVuSans-40" transform="translate(313.171875 0)"/>
     </g>
    </g>
   </g>
   <g id="line2d_71">
    <path d="M 86.936026 404.003536 
L 225.749613 404.003536 
L 225.749613 404.003536 
L 225.749613 292.688878 
L 681.739366 292.688878 
L 681.739366 292.688878 
" clip-path="url(#pd65ea985ff)" style="fill: none; stroke: #9467bd; stroke-width: 2.2; stroke-linecap: square"/>
   </g>
   <g id="line2d_72">
    <path d="M 225.749613 409.569269 
L 225.749613 287.123145 
" clip-path="url(#pd65ea985ff)" style="fill: none; stroke-dasharray: 4.44,1.92; stroke-dashoffset: 0; stroke: #696969; stroke-width: 1.2"/>
   </g>
   <g id="patch_13">
    <path d="M 57.195859 409.569269 
L 57.195859 287.123145 
" style="fill: none; stroke: #000000; stroke-width: 0.8; stroke-linejoin: miter; stroke-linecap: square"/>
   </g>
   <g id="patch_14">
    <path d="M 711.479533 409.569269 
L 711.479533 287.123145 
" style="fill: none; stroke: #000000; stroke-width: 0.8; stroke-linejoin: miter; stroke-linecap: square"/>
   </g>
   <g id="patch_15">
    <path d="M 57.195859 409.569269 
L 711.479533 409.569269 
" style="fill: none; stroke: #000000; stroke-width: 0.8; stroke-linejoin: miter; stroke-linecap: square"/>
   </g>
   <g id="patch_16">
    <path d="M 57.195859 287.123145 
L 711.479533 287.123145 
" style="fill: none; stroke: #000000; stroke-width: 0.8; stroke-linejoin: miter; stroke-linecap: square"/>
   </g>
  </g>
  <g id="axes_4">
   <g id="patch_17">
    <path d="M 57.195859 541.515873 
L 711.479533 541.515873 
L 711.479533 419.069749 
L 57.195859 419.069749 
z
" style="fill: #ffffff"/>
   </g>
   <g id="matplotlib.axis_7">
    <g id="xtick_22">
     <g id="line2d_73">
      <path d="M 86.936026 541.515873 
L 86.936026 419.069749 
" clip-path="url(#p39fd518eb2)" style="fill: none; stroke: #b0b0b0; stroke-opacity: 0.25; stroke-width: 0.4; stroke-linecap: square"/>
     </g>
     <g id="line2d_74">
      <g>
       <use xlink:href="#m33c3eb7186" x="86.936026" y="541.515873" style="stroke: #000000; stroke-width: 0.8"/>
      </g>
     </g>
     <g id="text_17">
      <!-- 0 -->
      <g transform="translate(83.436651 556.873295) scale(0.11 -0.11)">
       <use xlink:href="#DejaVuSans-13"/>
      </g>
     </g>
    </g>
    <g id="xtick_23">
     <g id="line2d_75">
      <path d="M 190.896921 541.515873 
L 190.896921 419.069749 
" clip-path="url(#p39fd518eb2)" style="fill: none; stroke: #b0b0b0; stroke-opacity: 0.25; stroke-width: 0.4; stroke-linecap: square"/>
     </g>
     <g id="line2d_76">
      <g>
       <use xlink:href="#m33c3eb7186" x="190.896921" y="541.515873" style="stroke: #000000; stroke-width: 0.8"/>
      </g>
     </g>
     <g id="text_18">
      <!-- 20 -->
      <g transform="translate(183.898171 556.873295) scale(0.11 -0.11)">
       <use xlink:href="#DejaVuSans-15"/>
       <use xlink:href="#DejaVuSans-13" transform="translate(63.625 0)"/>
      </g>
     </g>
    </g>
    <g id="xtick_24">
     <g id="line2d_77">
      <path d="M 294.857816 541.515873 
L 294.857816 419.069749 
" clip-path="url(#p39fd518eb2)" style="fill: none; stroke: #b0b0b0; stroke-opacity: 0.25; stroke-width: 0.4; stroke-linecap: square"/>
     </g>
     <g id="line2d_78">
      <g>
       <use xlink:href="#m33c3eb7186" x="294.857816" y="541.515873" style="stroke: #000000; stroke-width: 0.8"/>
      </g>
     </g>
     <g id="text_19">
      <!-- 40 -->
      <g transform="translate(287.859066 556.873295) scale(0.11 -0.11)">
       <defs>
        <path id="DejaVuSans-17" d="M 2419 4116 
L 825 1625 
L 2419 1625 
L 2419 4116 
z
M 2253 4666 
L 3047 4666 
L 3047 1625 
L 3713 1625 
L 3713 1100 
L 3047 1100 
L 3047 0 
L 2419 0 
L 2419 1100 
L 313 1100 
L 313 1709 
L 2253 4666 
z
" transform="scale(0.015625)"/>
       </defs>
       <use xlink:href="#DejaVuSans-17"/>
       <use xlink:href="#DejaVuSans-13" transform="translate(63.625 0)"/>
      </g>
     </g>
    </g>
    <g id="xtick_25">
     <g id="line2d_79">
      <path d="M 398.818711 541.515873 
L 398.818711 419.069749 
" clip-path="url(#p39fd518eb2)" style="fill: none; stroke: #b0b0b0; stroke-opacity: 0.25; stroke-width: 0.4; stroke-linecap: square"/>
     </g>
     <g id="line2d_80">
      <g>
       <use xlink:href="#m33c3eb7186" x="398.818711" y="541.515873" style="stroke: #000000; stroke-width: 0.8"/>
      </g>
     </g>
     <g id="text_20">
      <!-- 60 -->
      <g transform="translate(391.819961 556.873295) scale(0.11 -0.11)">
       <defs>
        <path id="DejaVuSans-19" d="M 2113 2584 
Q 1688 2584 1439 2293 
Q 1191 2003 1191 1497 
Q 1191 994 1439 701 
Q 1688 409 2113 409 
Q 2538 409 2786 701 
Q 3034 994 3034 1497 
Q 3034 2003 2786 2293 
Q 2538 2584 2113 2584 
z
M 3366 4563 
L 3366 3988 
Q 3128 4100 2886 4159 
Q 2644 4219 2406 4219 
Q 1781 4219 1451 3797 
Q 1122 3375 1075 2522 
Q 1259 2794 1537 2939 
Q 1816 3084 2150 3084 
Q 2853 3084 3261 2657 
Q 3669 2231 3669 1497 
Q 3669 778 3244 343 
Q 2819 -91 2113 -91 
Q 1303 -91 875 529 
Q 447 1150 447 2328 
Q 447 3434 972 4092 
Q 1497 4750 2381 4750 
Q 2619 4750 2861 4703 
Q 3103 4656 3366 4563 
z
" transform="scale(0.015625)"/>
       </defs>
       <use xlink:href="#DejaVuSans-19"/>
       <use xlink:href="#DejaVuSans-13" transform="translate(63.625 0)"/>
      </g>
     </g>
    </g>
    <g id="xtick_26">
     <g id="line2d_81">
      <path d="M 502.779605 541.515873 
L 502.779605 419.069749 
" clip-path="url(#p39fd518eb2)" style="fill: none; stroke: #b0b0b0; stroke-opacity: 0.25; stroke-width: 0.4; stroke-linecap: square"/>
     </g>
     <g id="line2d_82">
      <g>
       <use xlink:href="#m33c3eb7186" x="502.779605" y="541.515873" style="stroke: #000000; stroke-width: 0.8"/>
      </g>
     </g>
     <g id="text_21">
      <!-- 80 -->
      <g transform="translate(495.780855 556.873295) scale(0.11 -0.11)">
       <defs>
        <path id="DejaVuSans-1b" d="M 2034 2216 
Q 1584 2216 1326 1975 
Q 1069 1734 1069 1313 
Q 1069 891 1326 650 
Q 1584 409 2034 409 
Q 2484 409 2743 651 
Q 3003 894 3003 1313 
Q 3003 1734 2745 1975 
Q 2488 2216 2034 2216 
z
M 1403 2484 
Q 997 2584 770 2862 
Q 544 3141 544 3541 
Q 544 4100 942 4425 
Q 1341 4750 2034 4750 
Q 2731 4750 3128 4425 
Q 3525 4100 3525 3541 
Q 3525 3141 3298 2862 
Q 3072 2584 2669 2484 
Q 3125 2378 3379 2068 
Q 3634 1759 3634 1313 
Q 3634 634 3220 271 
Q 2806 -91 2034 -91 
Q 1263 -91 848 271 
Q 434 634 434 1313 
Q 434 1759 690 2068 
Q 947 2378 1403 2484 
z
M 1172 3481 
Q 1172 3119 1398 2916 
Q 1625 2713 2034 2713 
Q 2441 2713 2670 2916 
Q 2900 3119 2900 3481 
Q 2900 3844 2670 4047 
Q 2441 4250 2034 4250 
Q 1625 4250 1398 4047 
Q 1172 3844 1172 3481 
z
" transform="scale(0.015625)"/>
       </defs>
       <use xlink:href="#DejaVuSans-1b"/>
       <use xlink:href="#DejaVuSans-13" transform="translate(63.625 0)"/>
      </g>
     </g>
    </g>
    <g id="xtick_27">
     <g id="line2d_83">
      <path d="M 606.7405 541.515873 
L 606.7405 419.069749 
" clip-path="url(#p39fd518eb2)" style="fill: none; stroke: #b0b0b0; stroke-opacity: 0.25; stroke-width: 0.4; stroke-linecap: square"/>
     </g>
     <g id="line2d_84">
      <g>
       <use xlink:href="#m33c3eb7186" x="606.7405" y="541.515873" style="stroke: #000000; stroke-width: 0.8"/>
      </g>
     </g>
     <g id="text_22">
      <!-- 100 -->
      <g transform="translate(596.242375 556.873295) scale(0.11 -0.11)">
       <use xlink:href="#DejaVuSans-14"/>
       <use xlink:href="#DejaVuSans-13" transform="translate(63.625 0)"/>
       <use xlink:href="#DejaVuSans-13" transform="translate(127.25 0)"/>
      </g>
     </g>
    </g>
    <g id="xtick_28">
     <g id="line2d_85">
      <path d="M 710.701395 541.515873 
L 710.701395 419.069749 
" clip-path="url(#p39fd518eb2)" style="fill: none; stroke: #b0b0b0; stroke-opacity: 0.25; stroke-width: 0.4; stroke-linecap: square"/>
     </g>
     <g id="line2d_86">
      <g>
       <use xlink:href="#m33c3eb7186" x="710.701395" y="541.515873" style="stroke: #000000; stroke-width: 0.8"/>
      </g>
     </g>
     <g id="text_23">
      <!-- 120 -->
      <g transform="translate(700.20327 556.873295) scale(0.11 -0.11)">
       <use xlink:href="#DejaVuSans-14"/>
       <use xlink:href="#DejaVuSans-15" transform="translate(63.625 0)"/>
       <use xlink:href="#DejaVuSans-13" transform="translate(127.25 0)"/>
      </g>
     </g>
    </g>
    <g id="text_24">
     <!-- Mission time [s] -->
     <g transform="translate(340.876524 571.874154) scale(0.11 -0.11)">
      <defs>
       <path id="DejaVuSans-30" d="M 628 4666 
L 1569 4666 
L 2759 1491 
L 3956 4666 
L 4897 4666 
L 4897 0 
L 4281 0 
L 4281 4097 
L 3078 897 
L 2444 897 
L 1241 4097 
L 1241 0 
L 628 0 
L 628 4666 
z
" transform="scale(0.015625)"/>
       <path id="DejaVuSans-51" d="M 3513 2113 
L 3513 0 
L 2938 0 
L 2938 2094 
Q 2938 2591 2744 2837 
Q 2550 3084 2163 3084 
Q 1697 3084 1428 2787 
Q 1159 2491 1159 1978 
L 1159 0 
L 581 0 
L 581 3500 
L 1159 3500 
L 1159 2956 
Q 1366 3272 1645 3428 
Q 1925 3584 2291 3584 
Q 2894 3584 3203 3211 
Q 3513 2838 3513 2113 
z
" transform="scale(0.015625)"/>
      </defs>
      <use xlink:href="#DejaVuSans-30"/>
      <use xlink:href="#DejaVuSans-4c" transform="translate(86.28125 0)"/>
      <use xlink:href="#DejaVuSans-56" transform="translate(114.0625 0)"/>
      <use xlink:href="#DejaVuSans-56" transform="translate(166.15625 0)"/>
      <use xlink:href="#DejaVuSans-4c" transform="translate(218.25 0)"/>
      <use xlink:href="#DejaVuSans-52" transform="translate(246.03125 0)"/>
      <use xlink:href="#DejaVuSans-51" transform="translate(307.21875 0)"/>
      <use xlink:href="#DejaVuSans-3" transform="translate(370.59375 0)"/>
      <use xlink:href="#DejaVuSans-57" transform="translate(402.375 0)"/>
      <use xlink:href="#DejaVuSans-4c" transform="translate(441.578125 0)"/>
      <use xlink:href="#DejaVuSans-50" transform="translate(469.359375 0)"/>
      <use xlink:href="#DejaVuSans-48" transform="translate(566.765625 0)"/>
      <use xlink:href="#DejaVuSans-3" transform="translate(628.296875 0)"/>
      <use xlink:href="#DejaVuSans-3e" transform="translate(660.078125 0)"/>
      <use xlink:href="#DejaVuSans-56" transform="translate(699.09375 0)"/>
      <use xlink:href="#DejaVuSans-40" transform="translate(751.1875 0)"/>
     </g>
    </g>
   </g>
   <g id="matplotlib.axis_8">
    <g id="ytick_13">
     <g id="line2d_87">
      <path d="M 57.195859 538.052188 
L 711.479533 538.052188 
" clip-path="url(#p39fd518eb2)" style="fill: none; stroke: #b0b0b0; stroke-opacity: 0.25; stroke-width: 0.4; stroke-linecap: square"/>
     </g>
     <g id="line2d_88">
      <g>
       <use xlink:href="#m74880802d7" x="57.195859" y="538.052188" style="stroke: #000000; stroke-width: 0.8"/>
      </g>
     </g>
     <g id="text_25">
      <!-- −20 -->
      <g transform="translate(26.980703 542.230898) scale(0.11 -0.11)">
       <defs>
        <path id="DejaVuSans-c9c" d="M 678 2272 
L 4684 2272 
L 4684 1741 
L 678 1741 
L 678 2272 
z
" transform="scale(0.015625)"/>
       </defs>
       <use xlink:href="#DejaVuSans-c9c"/>
       <use xlink:href="#DejaVuSans-15" transform="translate(83.796875 0)"/>
       <use xlink:href="#DejaVuSans-13" transform="translate(147.421875 0)"/>
      </g>
     </g>
    </g>
    <g id="ytick_14">
     <g id="line2d_89">
      <path d="M 57.195859 510.260914 
L 711.479533 510.260914 
" clip-path="url(#p39fd518eb2)" style="fill: none; stroke: #b0b0b0; stroke-opacity: 0.25; stroke-width: 0.4; stroke-linecap: square"/>
     </g>
     <g id="line2d_90">
      <g>
       <use xlink:href="#m74880802d7" x="57.195859" y="510.260914" style="stroke: #000000; stroke-width: 0.8"/>
      </g>
     </g>
     <g id="text_26">
      <!-- −10 -->
      <g transform="translate(26.980703 514.439625) scale(0.11 -0.11)">
       <use xlink:href="#DejaVuSans-c9c"/>
       <use xlink:href="#DejaVuSans-14" transform="translate(83.796875 0)"/>
       <use xlink:href="#DejaVuSans-13" transform="translate(147.421875 0)"/>
      </g>
     </g>
    </g>
    <g id="ytick_15">
     <g id="line2d_91">
      <path d="M 57.195859 482.469641 
L 711.479533 482.469641 
" clip-path="url(#p39fd518eb2)" style="fill: none; stroke: #b0b0b0; stroke-opacity: 0.25; stroke-width: 0.4; stroke-linecap: square"/>
     </g>
     <g id="line2d_92">
      <g>
       <use xlink:href="#m74880802d7" x="57.195859" y="482.469641" style="stroke: #000000; stroke-width: 0.8"/>
      </g>
     </g>
     <g id="text_27">
      <!-- 0 -->
      <g transform="translate(43.197109 486.648352) scale(0.11 -0.11)">
       <use xlink:href="#DejaVuSans-13"/>
      </g>
     </g>
    </g>
    <g id="ytick_16">
     <g id="line2d_93">
      <path d="M 57.195859 454.678368 
L 711.479533 454.678368 
" clip-path="url(#p39fd518eb2)" style="fill: none; stroke: #b0b0b0; stroke-opacity: 0.25; stroke-width: 0.4; stroke-linecap: square"/>
     </g>
     <g id="line2d_94">
      <g>
       <use xlink:href="#m74880802d7" x="57.195859" y="454.678368" style="stroke: #000000; stroke-width: 0.8"/>
      </g>
     </g>
     <g id="text_28">
      <!-- 10 -->
      <g transform="translate(36.198359 458.857079) scale(0.11 -0.11)">
       <use xlink:href="#DejaVuSans-14"/>
       <use xlink:href="#DejaVuSans-13" transform="translate(63.625 0)"/>
      </g>
     </g>
    </g>
    <g id="ytick_17">
     <g id="line2d_95">
      <path d="M 57.195859 426.887095 
L 711.479533 426.887095 
" clip-path="url(#p39fd518eb2)" style="fill: none; stroke: #b0b0b0; stroke-opacity: 0.25; stroke-width: 0.4; stroke-linecap: square"/>
     </g>
     <g id="line2d_96">
      <g>
       <use xlink:href="#m74880802d7" x="57.195859" y="426.887095" style="stroke: #000000; stroke-width: 0.8"/>
      </g>
     </g>
     <g id="text_29">
      <!-- 20 -->
      <g transform="translate(36.198359 431.065806) scale(0.11 -0.11)">
       <use xlink:href="#DejaVuSans-15"/>
       <use xlink:href="#DejaVuSans-13" transform="translate(63.625 0)"/>
      </g>
     </g>
    </g>
    <g id="text_30">
     <!-- gamma [deg] -->
     <g transform="translate(20.338125 517.647264) rotate(-90) scale(0.11 -0.11)">
      <defs>
       <path id="DejaVuSans-47" d="M 2906 2969 
L 2906 4863 
L 3481 4863 
L 3481 0 
L 2906 0 
L 2906 525 
Q 2725 213 2448 61 
Q 2172 -91 1784 -91 
Q 1150 -91 751 415 
Q 353 922 353 1747 
Q 353 2572 751 3078 
Q 1150 3584 1784 3584 
Q 2172 3584 2448 3432 
Q 2725 3281 2906 2969 
z
M 947 1747 
Q 947 1113 1208 752 
Q 1469 391 1925 391 
Q 2381 391 2643 752 
Q 2906 1113 2906 1747 
Q 2906 2381 2643 2742 
Q 2381 3103 1925 3103 
Q 1469 3103 1208 2742 
Q 947 2381 947 1747 
z
" transform="scale(0.015625)"/>
      </defs>
      <use xlink:href="#DejaVuSans-4a"/>
      <use xlink:href="#DejaVuSans-44" transform="translate(63.484375 0)"/>
      <use xlink:href="#DejaVuSans-50" transform="translate(124.765625 0)"/>
      <use xlink:href="#DejaVuSans-50" transform="translate(222.171875 0)"/>
      <use xlink:href="#DejaVuSans-44" transform="translate(319.578125 0)"/>
      <use xlink:href="#DejaVuSans-3" transform="translate(380.859375 0)"/>
      <use xlink:href="#DejaVuSans-3e" transform="translate(412.640625 0)"/>
      <use xlink:href="#DejaVuSans-47" transform="translate(451.65625 0)"/>
      <use xlink:href="#DejaVuSans-48" transform="translate(515.140625 0)"/>
      <use xlink:href="#DejaVuSans-4a" transform="translate(576.671875 0)"/>
      <use xlink:href="#DejaVuSans-40" transform="translate(640.15625 0)"/>
     </g>
    </g>
   </g>
   <g id="line2d_97">
    <path d="M 86.936026 424.635482 
L 225.749613 424.635482 
L 225.749613 424.635482 
L 225.749613 486.891048 
L 227.726955 486.891048 
L 227.726955 488.642828 
L 465.094855 488.642828 
L 465.094855 491.723631 
L 469.054699 491.723631 
L 469.054699 500.91553 
L 471.044616 500.91553 
L 471.044616 509.985708 
L 475.057542 509.985708 
L 475.057542 518.879228 
L 479.116345 518.879228 
L 479.116345 527.547625 
L 483.233381 527.547625 
L 483.233381 530.379781 
L 489.442041 530.379781 
L 489.442041 535.95014 
L 506.190485 535.95014 
L 506.190485 530.379781 
L 512.399145 530.379781 
L 512.399145 524.685856 
L 518.543569 524.685856 
L 518.543569 518.879228 
L 526.661175 518.879228 
L 526.661175 512.972384 
L 532.7014 512.972384 
L 532.7014 509.985708 
L 540.727252 509.985708 
L 540.727252 506.979349 
L 582.732043 506.979349 
L 582.732043 500.91553 
L 681.739366 500.91553 
L 681.739366 500.91553 
" clip-path="url(#p39fd518eb2)" style="fill: none; stroke: #9467bd; stroke-width: 2.2; stroke-linecap: square"/>
   </g>
   <g id="line2d_98">
    <path d="M 225.749613 541.515873 
L 225.749613 419.069749 
" clip-path="url(#p39fd518eb2)" style="fill: none; stroke-dasharray: 4.44,1.92; stroke-dashoffset: 0; stroke: #696969; stroke-width: 1.2"/>
   </g>
   <g id="patch_18">
    <path d="M 57.195859 541.515873 
L 57.195859 419.069749 
" style="fill: none; stroke: #000000; stroke-width: 0.8; stroke-linejoin: miter; stroke-linecap: square"/>
   </g>
   <g id="patch_19">
    <path d="M 711.479533 541.515873 
L 711.479533 419.069749 
" style="fill: none; stroke: #000000; stroke-width: 0.8; stroke-linejoin: miter; stroke-linecap: square"/>
   </g>
   <g id="patch_20">
    <path d="M 57.195859 541.515873 
L 711.479533 541.515873 
" style="fill: none; stroke: #000000; stroke-width: 0.8; stroke-linejoin: miter; stroke-linecap: square"/>
   </g>
   <g id="patch_21">
    <path d="M 57.195859 419.069749 
L 711.479533 419.069749 
" style="fill: none; stroke: #000000; stroke-width: 0.8; stroke-linejoin: miter; stroke-linecap: square"/>
   </g>
   <g id="legend_1">
    <g id="patch_22">
     <path d="M 64.895859 605.999492 
L 454.055234 605.999492 
Q 456.255234 605.999492 456.255234 603.799492 
L 456.255234 588.398632 
Q 456.255234 586.198632 454.055234 586.198632 
L 64.895859 586.198632 
Q 62.695859 586.198632 62.695859 588.398632 
L 62.695859 603.799492 
Q 62.695859 605.999492 64.895859 605.999492 
z
" style="fill: #ffffff; opacity: 0.8; stroke: #cccccc; stroke-linejoin: miter"/>
    </g>
    <g id="line2d_99">
     <path d="M 67.095859 595.106914 
L 78.095859 595.106914 
L 78.095859 595.106914 
L 89.095859 595.106914 
L 89.095859 595.106914 
" style="fill: none; stroke: #9467bd; stroke-width: 2.2; stroke-linecap: square"/>
    </g>
    <g id="text_31">
     <!-- Bellman-optimal attacker state -->
     <g transform="translate(97.895859 598.956914) scale(0.11 -0.11)">
      <defs>
       <path id="DejaVuSans-25" d="M 1259 2228 
L 1259 519 
L 2272 519 
Q 2781 519 3026 730 
Q 3272 941 3272 1375 
Q 3272 1813 3026 2020 
Q 2781 2228 2272 2228 
L 1259 2228 
z
M 1259 4147 
L 1259 2741 
L 2194 2741 
Q 2656 2741 2882 2914 
Q 3109 3088 3109 3444 
Q 3109 3797 2882 3972 
Q 2656 4147 2194 4147 
L 1259 4147 
z
M 628 4666 
L 2241 4666 
Q 2963 4666 3353 4366 
Q 3744 4066 3744 3513 
Q 3744 3084 3544 2831 
Q 3344 2578 2956 2516 
Q 3422 2416 3680 2098 
Q 3938 1781 3938 1306 
Q 3938 681 3513 340 
Q 3088 0 2303 0 
L 628 0 
L 628 4666 
z
" transform="scale(0.015625)"/>
       <path id="DejaVuSans-10" d="M 313 2009 
L 1997 2009 
L 1997 1497 
L 313 1497 
L 313 2009 
z
" transform="scale(0.015625)"/>
      </defs>
      <use xlink:href="#DejaVuSans-25"/>
      <use xlink:href="#DejaVuSans-48" transform="translate(68.609375 0)"/>
      <use xlink:href="#DejaVuSans-4f" transform="translate(130.140625 0)"/>
      <use xlink:href="#DejaVuSans-4f" transform="translate(157.921875 0)"/>
      <use xlink:href="#DejaVuSans-50" transform="translate(185.703125 0)"/>
      <use xlink:href="#DejaVuSans-44" transform="translate(283.109375 0)"/>
      <use xlink:href="#DejaVuSans-51" transform="translate(344.390625 0)"/>
      <use xlink:href="#DejaVuSans-10" transform="translate(407.765625 0)"/>
      <use xlink:href="#DejaVuSans-52" transform="translate(445.703125 0)"/>
      <use xlink:href="#DejaVuSans-53" transform="translate(506.890625 0)"/>
      <use xlink:href="#DejaVuSans-57" transform="translate(570.375 0)"/>
      <use xlink:href="#DejaVuSans-4c" transform="translate(609.578125 0)"/>
      <use xlink:href="#DejaVuSans-50" transform="translate(637.359375 0)"/>
      <use xlink:href="#DejaVuSans-44" transform="translate(734.765625 0)"/>
      <use xlink:href="#DejaVuSans-4f" transform="translate(796.046875 0)"/>
      <use xlink:href="#DejaVuSans-3" transform="translate(823.828125 0)"/>
      <use xlink:href="#DejaVuSans-44" transform="translate(855.609375 0)"/>
      <use xlink:href="#DejaVuSans-57" transform="translate(916.890625 0)"/>
      <use xlink:href="#DejaVuSans-57" transform="translate(956.09375 0)"/>
      <use xlink:href="#DejaVuSans-44" transform="translate(995.296875 0)"/>
      <use xlink:href="#DejaVuSans-46" transform="translate(1056.578125 0)"/>
      <use xlink:href="#DejaVuSans-4e" transform="translate(1111.5625 0)"/>
      <use xlink:href="#DejaVuSans-48" transform="translate(1165.90625 0)"/>
      <use xlink:href="#DejaVuSans-55" transform="translate(1227.4375 0)"/>
      <use xlink:href="#DejaVuSans-3" transform="translate(1268.546875 0)"/>
      <use xlink:href="#DejaVuSans-56" transform="translate(1300.328125 0)"/>
      <use xlink:href="#DejaVuSans-57" transform="translate(1352.421875 0)"/>
      <use xlink:href="#DejaVuSans-44" transform="translate(1391.625 0)"/>
      <use xlink:href="#DejaVuSans-57" transform="translate(1452.90625 0)"/>
      <use xlink:href="#DejaVuSans-48" transform="translate(1492.109375 0)"/>
     </g>
    </g>
    <g id="line2d_100">
     <path d="M 290.796328 595.106914 
L 301.796328 595.106914 
L 312.796328 595.106914 
" style="fill: none; stroke-dasharray: 4.44,1.92; stroke-dashoffset: 0; stroke: #696969; stroke-width: 1.2"/>
    </g>
    <g id="text_32">
     <!-- Powered to glide switch -->
     <g transform="translate(321.596328 598.956914) scale(0.11 -0.11)">
      <defs>
       <path id="DejaVuSans-33" d="M 1259 4147 
L 1259 2394 
L 2053 2394 
Q 2494 2394 2734 2622 
Q 2975 2850 2975 3272 
Q 2975 3691 2734 3919 
Q 2494 4147 2053 4147 
L 1259 4147 
z
M 628 4666 
L 2053 4666 
Q 2838 4666 3239 4311 
Q 3641 3956 3641 3272 
Q 3641 2581 3239 2228 
Q 2838 1875 2053 1875 
L 1259 1875 
L 1259 0 
L 628 0 
L 628 4666 
z
" transform="scale(0.015625)"/>
       <path id="DejaVuSans-5a" d="M 269 3500 
L 844 3500 
L 1563 769 
L 2278 3500 
L 2956 3500 
L 3675 769 
L 4391 3500 
L 4966 3500 
L 4050 0 
L 3372 0 
L 2619 2869 
L 1863 0 
L 1184 0 
L 269 3500 
z
" transform="scale(0.015625)"/>
      </defs>
      <use xlink:href="#DejaVuSans-33"/>
      <use xlink:href="#DejaVuSans-52" transform="translate(56.734375 0)"/>
      <use xlink:href="#DejaVuSans-5a" transform="translate(117.921875 0)"/>
      <use xlink:href="#DejaVuSans-48" transform="translate(199.703125 0)"/>
      <use xlink:href="#DejaVuSans-55" transform="translate(261.234375 0)"/>
      <use xlink:href="#DejaVuSans-48" transform="translate(300.140625 0)"/>
      <use xlink:href="#DejaVuSans-47" transform="translate(361.671875 0)"/>
      <use xlink:href="#DejaVuSans-3" transform="translate(425.15625 0)"/>
      <use xlink:href="#DejaVuSans-57" transform="translate(456.9375 0)"/>
      <use xlink:href="#DejaVuSans-52" transform="translate(496.140625 0)"/>
      <use xlink:href="#DejaVuSans-3" transform="translate(557.328125 0)"/>
      <use xlink:href="#DejaVuSans-4a" transform="translate(589.109375 0)"/>
      <use xlink:href="#DejaVuSans-4f" transform="translate(652.59375 0)"/>
      <use xlink:href="#DejaVuSans-4c" transform="translate(680.375 0)"/>
      <use xlink:href="#DejaVuSans-47" transform="translate(708.15625 0)"/>
      <use xlink:href="#DejaVuSans-48" transform="translate(771.640625 0)"/>
      <use xlink:href="#DejaVuSans-3" transform="translate(833.171875 0)"/>
      <use xlink:href="#DejaVuSans-56" transform="translate(864.953125 0)"/>
      <use xlink:href="#DejaVuSans-5a" transform="translate(917.046875 0)"/>
      <use xlink:href="#DejaVuSans-4c" transform="translate(998.828125 0)"/>
      <use xlink:href="#DejaVuSans-57" transform="translate(1026.609375 0)"/>
      <use xlink:href="#DejaVuSans-46" transform="translate(1065.8125 0)"/>
      <use xlink:href="#DejaVuSans-4b" transform="translate(1120.796875 0)"/>
     </g>
    </g>
   </g>
  </g>
 </g>
 <defs>
  <clipPath id="p720d52647a">
   <rect x="57.195859" y="23.229937" width="654.283673" height="122.446124"/>
  </clipPath>
  <clipPath id="pa28528db1b">
   <rect x="57.195859" y="155.176541" width="654.283673" height="122.446124"/>
  </clipPath>
  <clipPath id="pd65ea985ff">
   <rect x="57.195859" y="287.123145" width="654.283673" height="122.446124"/>
  </clipPath>
  <clipPath id="p39fd518eb2">
   <rect x="57.195859" y="419.069749" width="654.283673" height="122.446124"/>
  </clipPath>
 </defs>
</svg>
